<?xml version="1.0" encoding="UTF-8" standalone="no"?>
<!-- Created with Inkscape (http://www.inkscape.org/) -->

<svg
   xmlns:dc="http://purl.org/dc/elements/1.1/"
   xmlns:cc="http://creativecommons.org/ns#"
   xmlns:rdf="http://www.w3.org/1999/02/22-rdf-syntax-ns#"
   xmlns:svg="http://www.w3.org/2000/svg"
   xmlns="http://www.w3.org/2000/svg"
   xmlns:sodipodi="http://sodipodi.sourceforge.net/DTD/sodipodi-0.dtd"
   xmlns:inkscape="http://www.inkscape.org/namespaces/inkscape"
   width="23.944792mm"
   height="22.886456mm"
   viewBox="0 0 23.944792 22.886456"
   version="1.1"
   id="svg4058"
   inkscape:version="0.92.4 (5da689c313, 2019-01-14)"
   sodipodi:docname="button.svg">
  <defs
     id="defs4052" />
  <sodipodi:namedview
     id="base"
     pagecolor="#ffffff"
     bordercolor="#666666"
     borderopacity="1.0"
     inkscape:pageopacity="0.0"
     inkscape:pageshadow="2"
     inkscape:zoom="8"
     inkscape:cx="107.09477"
     inkscape:cy="14.616175"
     inkscape:document-units="mm"
     inkscape:current-layer="layer1"
     showgrid="false"
     fit-margin-top="0"
     fit-margin-left="0"
     fit-margin-right="0"
     fit-margin-bottom="0"
     inkscape:window-width="3240"
     inkscape:window-height="2055"
     inkscape:window-x="-13"
     inkscape:window-y="-13"
     inkscape:window-maximized="1" />
  <metadata
     id="metadata4055">
    <rdf:RDF>
      <cc:Work
         rdf:about="">
        <dc:format>image/svg+xml</dc:format>
        <dc:type
           rdf:resource="http://purl.org/dc/dcmitype/StillImage" />
        <dc:title></dc:title>
      </cc:Work>
    </rdf:RDF>
  </metadata>
  <g
     inkscape:label="Layer 1"
     inkscape:groupmode="layer"
     id="layer1"
     transform="translate(8.9485865,82.592038)">
    <path
       id="path3936-8"
       style="fill:#000000;stroke-width:0.13229166"
       d="m 2.1470022,-77.842728 c -0.245121,-0.245118 -0.217559,-2.148369 0.0341,-2.357249 0.108209,-0.0898 0.289049,-0.127879 0.40186,-0.0846 0.296971,0.113951 0.229589,2.508332 -0.0722,2.566001 -0.110659,0.02111 -0.27437,-0.0347 -0.363799,-0.124169 z m -1.506731,0.193792 c -0.417039,-0.48273 -0.947399,-1.589281 -0.864838,-1.804422 0.0462,-0.120369 0.222308,-0.218858 0.391379,-0.218858 0.238408,0 0.419799,0.192159 0.808299,0.85629 0.27549,0.47095 0.48073,0.96208 0.456082,1.091398 -0.0611,0.320532 -0.539782,0.366281 -0.790922,0.0756 z m 2.8087,0.11091 c -0.10078,-0.188301 -0.0472,-0.412011 0.22506,-0.94048 0.523769,-1.01651 0.887032,-1.372322 1.21943,-1.194421 0.353312,0.189081 0.338791,0.301691 -0.151479,1.175231 -0.693362,1.235401 -1.016921,1.475539 -1.293011,0.95967 z m 1.08203,1.08417 c -0.448681,-0.177461 0.177522,-0.886081 1.238512,-1.401551 1.192537,-0.579379 1.355609,0.22837 0.183618,0.90958 -0.796909,0.4632 -1.16922,0.592 -1.42213,0.491971 z m -5.629828,-0.449961 c -0.920981,-0.55541 -1.054622,-0.80596 -0.586992,-1.10046 0.184791,-0.116369 0.374531,-0.0679 0.92605,0.2365 0.935051,0.516121 1.17547,0.7428 1.1294,1.064829 -0.063,0.440362 -0.50556,0.37982 -1.468458,-0.200869 z m 5.93421,1.73695 c -0.197933,-0.21871 -0.211492,-0.303419 -0.0749,-0.467968 0.24335,-0.293212 2.280078,-0.286272 2.524799,0.009 0.125931,0.151742 0.135671,0.270331 0.0353,0.429951 -0.106622,0.169609 -0.38118,0.22919 -1.19104,0.25844 -0.916199,0.0331 -1.083781,0.003 -1.294159,-0.229032 z m -7.211351,0.0651 c -0.0877,-0.10564 -0.138801,-0.299119 -0.113599,-0.429951 0.04,-0.20765 0.194958,-0.23786 1.220197,-0.23786 0.95214,0 1.200711,0.0417 1.313431,0.220422 0.100899,0.159959 0.0913,0.277899 -0.0349,0.429948 -0.238198,0.287012 -2.149848,0.30099 -2.385179,0.01741 z m 8.51023,12.225743 c 1.52572,-0.57084 2.205119,-1.84548 2.19416,-4.116523 -0.007,-1.50236 -0.173561,-1.95585 -0.793541,-2.16381 -0.279468,-0.0937 -0.534418,-0.303321 -0.655701,-0.539031 -0.25817,-0.501718 -0.376827,-0.57962 -0.886617,-0.582059 -0.352162,-0.0021 -0.492661,-0.10242 -0.833182,-0.597339 -0.381069,-0.553882 -0.45025,-0.59531 -0.993878,-0.59531 -0.442291,0 -0.617591,-0.0622 -0.721252,-0.255892 -0.0753,-0.14074 -0.136948,-1.000069 -0.136948,-1.90962 0,-0.90955 -0.056,-1.800921 -0.124362,-1.980811 -0.165698,-0.435819 -0.821878,-0.587769 -1.27008,-0.294097 l -0.32535,0.213177 v 3.90825 c 0,3.917622 -0.0536,4.420032 -0.47157,4.420032 -0.108719,0 -0.50846,-0.246661 -0.888309,-0.54814 -1.16168,-0.92197 -2.026031,-1.14104 -2.616279,-0.663091 -0.392523,0.317849 -0.284322,0.578091 0.427058,1.027171 0.815311,0.51468 1.85732,1.53788 2.908369,2.855883 0.932561,1.16942 1.399482,1.54988 2.313231,1.88492 0.76358,0.27998 2.03073,0.25189 2.874251,-0.0637 z m -3.185311,0.94831 c -0.86967,-0.30436 -1.678289,-0.96492 -2.649598,-2.16446 -1.308172,-1.615554 -1.592792,-1.898994 -2.555611,-2.544974 -0.70113,-0.470408 -1.00671,-0.773629 -1.21807,-1.208659 l -0.28213,-0.580721 0.26584,-0.35606 c 0.457829,-0.61322 0.92661,-0.87562 1.675198,-0.9377 0.593051,-0.0492 0.82668,0.003 1.427631,0.31863 0.39519,0.20759 0.76318,0.397621 0.817751,0.422291 0.0546,0.02471 0.0992,-1.057741 0.0992,-2.405351 v -2.450211 l -0.857509,0.520962 c -0.895792,0.544208 -1.478532,0.660419 -1.608843,0.320829 -0.110999,-0.28924 0.13134,-0.52274 1.111291,-1.070759 0.715301,-0.400021 0.911661,-0.458991 1.11188,-0.333951 0.220972,0.138001 0.243181,0.10306 0.243181,-0.38267 0,-0.688761 0.261368,-1.289201 0.76886,-1.76626 0.37287,-0.35052 0.467069,-0.375799 1.20196,-0.322649 1.16567,0.0843 1.733339,0.725569 1.733339,1.958009 0,0.501071 0.0209,0.530709 0.32054,0.455491 0.23255,-0.0584 0.573352,0.0672 1.241419,0.457369 0.506482,0.295802 0.94878,0.61364 0.98289,0.706311 0.108922,0.295939 -0.0438,0.499229 -0.37506,0.499229 -0.317769,0 -1.702329,-0.704811 -1.848199,-0.940829 -0.157948,-0.255569 -0.32159,0.0536 -0.32159,0.60765 0,0.541909 0.0282,0.58656 0.460941,0.729369 0.25351,0.0837 0.683778,0.387291 0.956148,0.674721 0.293862,0.310111 0.702502,0.578419 1.005012,0.659879 0.336141,0.0905 0.583348,0.265441 0.725728,0.513511 0.118761,0.206939 0.461823,0.495711 0.76236,0.641718 0.764651,0.371491 1.020802,0.960951 1.092402,2.513841 0.16525,3.583814 -1.414011,5.587084 -4.47342,5.674474 -0.815429,0.0233 -1.31387,-0.0342 -1.81356,-0.20903 z m 0.07486,-20.664317 c -11.266843,0 -11.447305,0.0041 -11.7078147,0.264583 -0.26058,0.2603 -0.264583,0.440976 -0.264583,11.178646 0,10.737686 0.0043,10.918336 0.264583,11.17864 0.2605097,0.26057 0.4409717,0.26458 11.7078147,0.26458 11.2668388,0 11.4473108,-0.004 11.7078118,-0.26458 0.260591,-0.260304 0.264583,-0.440954 0.264583,-11.17864 0,-10.73767 -0.0043,-10.918346 -0.264583,-11.178646 -0.260501,-0.260591 -0.440973,-0.264583 -11.7078118,-0.264583 z m -10.781772,1.190625 H 3.0238112 13.805581 v 10.252604 10.252606 H 3.0238132 -7.7579578 v -10.252606 z"
       inkscape:connector-curvature="0" />
  </g>
</svg>
