<?xml version="1.0" encoding="UTF-8" standalone="no"?>
<!-- Created with Inkscape (http://www.inkscape.org/) -->

<svg
   xmlns:dc="http://purl.org/dc/elements/1.1/"
   xmlns:cc="http://creativecommons.org/ns#"
   xmlns:rdf="http://www.w3.org/1999/02/22-rdf-syntax-ns#"
   xmlns:svg="http://www.w3.org/2000/svg"
   xmlns="http://www.w3.org/2000/svg"
   xmlns:sodipodi="http://sodipodi.sourceforge.net/DTD/sodipodi-0.dtd"
   xmlns:inkscape="http://www.inkscape.org/namespaces/inkscape"
   width="29.633329mm"
   height="29.633329mm"
   viewBox="0 0 29.633329 29.633329"
   version="1.1"
   id="svg8"
   inkscape:version="0.92.4 (5da689c313, 2019-01-14)"
   sodipodi:docname="co2.svg">
  <defs
     id="defs2" />
  <sodipodi:namedview
     id="base"
     pagecolor="#ffffff"
     bordercolor="#666666"
     borderopacity="1.0"
     inkscape:pageopacity="0.0"
     inkscape:pageshadow="2"
     inkscape:zoom="2.8"
     inkscape:cx="157.97255"
     inkscape:cy="-18.269209"
     inkscape:document-units="mm"
     inkscape:current-layer="layer1"
     showgrid="false"
     inkscape:window-width="3240"
     inkscape:window-height="2055"
     inkscape:window-x="-13"
     inkscape:window-y="-13"
     inkscape:window-maximized="1" />
  <metadata
     id="metadata5">
    <rdf:RDF>
      <cc:Work
         rdf:about="">
        <dc:format>image/svg+xml</dc:format>
        <dc:type
           rdf:resource="http://purl.org/dc/dcmitype/StillImage" />
        <dc:title></dc:title>
      </cc:Work>
    </rdf:RDF>
  </metadata>
  <g
     inkscape:label="Layer 1"
     inkscape:groupmode="layer"
     id="layer1"
     transform="translate(-205.17518,-251.29229)">
    <g
       id="g4567"
       transform="translate(44.421897,-6.9840547)">
      <path
         style="fill:#fefefe;stroke-width:0.26458332"
         d="m 160.75328,273.09301 v -14.81667 h 14.81667 14.81666 v 14.81667 14.81666 h -14.81666 -14.81667 z"
         id="path4593"
         inkscape:connector-curvature="0" />
      <path
         style="fill:#e7e7e7;stroke-width:0.26458332"
         d="m 171.15848,283.06507 c -0.41135,-0.33621 -1.2378,-0.75287 -1.83656,-0.92593 -0.59876,-0.17306 -1.41686,-0.57282 -1.818,-0.88836 -1.95046,-1.53423 -1.92178,-5.27888 0.0523,-6.83171 0.35773,-0.28139 0.90818,-1.0207 1.22321,-1.64291 0.86455,-1.70756 2.43508,-2.67616 4.55847,-2.81137 2.04084,-0.12995 3.63329,0.37976 4.71548,1.50932 0.69331,0.72366 0.76074,0.73941 1.73253,0.4046 1.35296,-0.46613 2.68329,-0.0867 3.58855,1.0236 0.38214,0.46868 1.10052,1.30791 1.59638,1.86495 0.99423,1.11687 1.32319,2.29353 1.10208,3.94199 -0.30714,2.28994 -2.25879,3.64417 -5.25178,3.64417 -0.97923,0 -1.84565,0.10557 -1.92539,0.23459 -0.23471,0.37976 -1.88456,0.59107 -2.57257,0.32948 -0.48389,-0.18397 -0.7819,-0.12242 -1.25259,0.25872 -0.91123,0.73787 -2.94402,0.68012 -3.91214,-0.11114 z m 3.60067,-1.35496 c 0.58676,-0.62458 0.63048,-0.63086 1.50133,-0.21558 0.83,0.3958 0.96677,0.39445 1.83198,-0.0181 0.58838,-0.28058 1.5938,-0.44625 2.71198,-0.44687 2.61684,-10e-4 4.02981,-1.00744 4.08383,-2.90754 0.0315,-1.10774 -0.51139,-2.22767 -1.39738,-2.88271 -0.42746,-0.31604 -0.77719,-0.73118 -0.77719,-0.92255 0,-0.47985 -0.79104,-1.14881 -1.59584,-1.34957 -0.47523,-0.11854 -0.95074,0.0236 -1.63696,0.48926 l -0.96717,0.65634 -0.69576,-0.91219 c -1.31336,-1.72191 -2.9592,-2.34697 -5.02157,-1.90711 -1.44594,0.30839 -2.97585,1.64082 -3.20615,2.79231 -0.0947,0.47366 -0.42721,0.94197 -0.81677,1.15046 -1.26251,0.67567 -1.86227,2.85915 -1.15061,4.1889 0.41776,0.78058 1.82755,1.60319 2.74962,1.6044 0.49012,6.3e-4 0.93852,0.23343 1.27598,0.66244 0.71673,0.91118 2.26324,0.92021 3.11068,0.0181 z m -3.42254,-2.34685 c -0.60994,-0.30684 -0.66146,-0.4756 -0.66146,-2.16688 0,-1.7258 0.043,-1.85816 0.72761,-2.24114 0.65403,-0.36587 0.80118,-0.366 1.45521,-10e-4 0.89392,0.49845 1.15219,1.57865 0.37744,1.57865 -0.2856,0 -0.5878,-0.17859 -0.67156,-0.39688 -0.0838,-0.21828 -0.33463,-0.39687 -0.55747,-0.39687 -0.31474,0 -0.40518,0.32482 -0.40518,1.45521 0,1.13038 0.0904,1.45521 0.40518,1.45521 0.22284,0 0.47371,-0.1786 0.55747,-0.39688 0.22382,-0.58326 1.15401,-0.50274 1.15401,0.0999 0,0.95579 -1.35087,1.52932 -2.38125,1.01098 z m 3.36199,-0.18908 c -0.61919,-0.48706 -0.71615,-0.75516 -0.71615,-1.98013 0,-1.22497 0.097,-1.49307 0.71615,-1.98013 0.4978,-0.39157 0.92132,-0.51401 1.38906,-0.4016 0.9854,0.23684 1.33437,0.85971 1.33437,2.38173 0,1.52202 -0.34897,2.14489 -1.33437,2.38172 -0.46774,0.11242 -0.89126,-0.01 -1.38906,-0.40159 z m 1.5328,-1.98376 c 0,-1.1429 -0.0707,-1.31929 -0.52916,-1.31929 -0.42317,0 -0.54595,0.20432 -0.61294,1.02001 -0.10734,1.30681 0.0965,1.81995 0.67828,1.7079 0.36809,-0.0709 0.46382,-0.36164 0.46382,-1.40862 z m 1.7198,1.99029 c 0,-0.14426 0.41672,-0.80822 0.92604,-1.47547 0.92139,-1.20709 1.1736,-1.9664 0.65315,-1.9664 -0.15009,0 -0.34142,0.17859 -0.42518,0.39687 -0.0838,0.21829 -0.38596,0.39688 -0.67156,0.39688 -0.76188,0 -0.52296,-1.07628 0.34695,-1.56292 0.62466,-0.34944 0.76904,-0.34285 1.38907,0.0634 0.87764,0.57506 0.88389,1.35879 0.0209,2.62873 l -0.671,0.98746 h 0.80329 c 0.53764,0 0.80329,0.13124 0.80329,0.39687 0,0.30868 -0.35278,0.39688 -1.5875,0.39688 -0.87313,0 -1.5875,-0.11804 -1.5875,-0.2623 z m -12.71576,-6.5929 c -1.13436,-1.02363 -1.37182,-1.36885 -1.12035,-1.62879 0.25314,-0.26166 0.52711,-0.14355 1.32529,0.57134 0.55341,0.49565 1.29334,1.08803 1.64429,1.3164 0.63458,0.41293 0.587,1.04 -0.0789,1.04 -0.18198,0 -0.97862,-0.58453 -1.77032,-1.29895 z m 19.22571,0.61417 c -0.088,-0.22926 -0.15995,-0.44142 -0.15995,-0.47146 0,-0.03 0.54552,-0.51062 1.21227,-1.06796 0.88493,-0.73971 1.29122,-0.9344 1.50462,-0.72099 0.31951,0.31951 -0.40736,1.25137 -1.69704,2.17562 -0.61973,0.44413 -0.71828,0.45385 -0.8599,0.0848 z m -3.33495,-2.19521 c 0,-0.12879 0.32742,-0.44185 0.7276,-0.69571 0.40018,-0.25386 1.04792,-0.75926 1.43941,-1.12313 0.48596,-0.45166 0.86374,-0.60174 1.19063,-0.47299 0.4107,0.16176 0.2964,0.35484 -0.80355,1.35729 -1.1702,1.06646 -2.55409,1.57283 -2.55409,0.93454 z m -13.61684,-1.11617 c -1.00121,-0.87907 -1.1436,-1.23216 -0.58359,-1.44706 0.45406,-0.17424 2.40743,1.60633 2.17493,1.98253 -0.27796,0.44974 -0.5881,0.34538 -1.59134,-0.53547 z m 9.42176,-0.61358 c -0.63926,-0.34212 -0.49926,-0.68193 0.28096,-0.68193 0.65056,0 2.31096,-0.85669 3.34222,-1.72444 0.59432,-0.50009 0.9399,-0.62523 1.24897,-0.45226 0.35816,0.20043 0.22855,0.41407 -0.80102,1.32033 -1.52896,1.34584 -3.22986,1.98854 -4.07113,1.5383 z m -6.93364,-1.6541 c -0.90514,-0.81774 -1.00876,-1.00984 -0.6523,-1.20932 0.30914,-0.173 0.6669,-0.0237 1.32251,0.55194 0.49431,0.43401 1.14641,0.86771 1.44913,0.96379 0.70635,0.22419 0.44225,0.66576 -0.39818,0.66576 -0.37144,0 -1.10156,-0.4124 -1.72116,-0.97217 z m 4.1662,-0.60622 c -0.8848,-0.2817 -2.56248,-1.51449 -2.56248,-1.88296 0,-0.37872 0.81745,-0.63117 1.01889,-0.31467 0.37563,0.59022 2.07544,1.39279 2.94986,1.39279 0.87442,0 2.57423,-0.80257 2.94986,-1.39279 0.23513,-0.36945 1.08956,-0.009 0.95381,0.40272 -0.06,0.18183 -0.57591,0.65761 -1.14648,1.05729 -1.13945,0.79818 -2.96011,1.12074 -4.16346,0.73762 z"
         id="path4591"
         inkscape:connector-curvature="0" />
      <path
         style="fill:#d7d7d7;stroke-width:0.26458332"
         d="m 171.86578,283.48948 c -0.21828,-0.0798 -0.635,-0.34782 -0.92604,-0.59562 -0.29104,-0.24779 -1.01906,-0.58977 -1.61782,-0.75996 -2.0854,-0.59272 -3.27697,-2.14275 -3.27697,-4.26277 0,-1.24574 0.81551,-3.04205 1.56259,-3.44188 0.27639,-0.14792 0.76444,-0.80998 1.08455,-1.47124 0.96443,-1.99225 2.83701,-3.04521 5.39598,-3.03419 1.54561,0.007 3.18053,0.67244 4.09807,1.66884 0.49013,0.53226 0.73841,0.62909 1.10709,0.43178 0.26139,-0.13989 1.03078,-0.25435 1.70974,-0.25435 1.08838,0 1.34215,0.11742 2.14425,0.99219 0.50038,0.5457 1.12996,1.23064 1.39908,1.52208 1.20886,1.30916 1.67454,2.48826 1.55449,3.93597 -0.22032,2.65673 -2.03811,4.11616 -5.14072,4.12728 -0.89173,0.003 -2.05835,0.18841 -2.59249,0.41159 -0.69411,0.29002 -1.21281,0.33983 -1.81825,0.1746 -0.65333,-0.1783 -1.02865,-0.12013 -1.64084,0.25429 -0.76055,0.46516 -2.20368,0.6081 -3.04271,0.30139 z m 2.91042,-1.78644 c 0.58986,-0.52697 0.73305,-0.55282 1.32291,-0.23876 0.85301,0.45416 1.60267,0.4522 2.25671,-0.006 0.30433,-0.21317 1.4248,-0.40686 2.6845,-0.46407 1.84638,-0.0838 2.26174,-0.19176 2.8442,-0.73895 1.48077,-1.39111 1.36085,-3.70666 -0.25583,-4.93976 -0.50325,-0.38384 -0.91499,-0.85372 -0.91499,-1.04417 0,-0.45441 -1.26801,-1.44301 -1.85085,-1.44301 -0.25111,0 -0.88461,0.29049 -1.40779,0.64553 l -0.95123,0.64552 -0.52783,-0.85404 c -1.94077,-3.14022 -7.5369,-2.61678 -8.39065,0.78483 -0.0838,0.33368 -0.55244,0.91191 -1.04154,1.28496 -2.23238,1.70272 -1.38278,5.1911 1.3658,5.60785 0.56657,0.0859 1.32778,0.42352 1.69159,0.75026 1.18431,1.06366 1.99249,1.06614 3.175,0.01 z m -3.175,-2.18171 c -0.75332,-0.26421 -1.05834,-0.9783 -1.05834,-2.47775 0,-1.71224 0.35562,-2.18668 1.63905,-2.18668 1.256,0 2.05087,1.40937 0.91872,1.62894 -0.26109,0.0506 -0.4411,-0.0843 -0.4411,-0.33072 0,-0.23989 -0.22422,-0.41628 -0.52917,-0.41628 -0.46502,0 -0.52916,0.17639 -0.52916,1.45521 0,1.27882 0.0641,1.45521 0.52916,1.45521 0.29398,0 0.52917,-0.17639 0.52917,-0.39688 0,-0.22048 0.23519,-0.39687 0.52917,-0.39687 0.60034,0 0.68781,0.49078 0.19843,1.11334 -0.38691,0.4922 -1.22159,0.75041 -1.78593,0.55248 z m 3.52302,-0.0972 c -0.75407,-0.28164 -1.14177,-1.0389 -1.14177,-2.23011 0,-1.22683 0.38804,-1.94382 1.22403,-2.26166 0.67766,-0.25765 1.60856,0.0418 2.01306,0.64762 0.25511,0.38206 0.25103,2.84788 -0.005,3.25113 -0.32005,0.50333 -1.46229,0.82744 -2.08994,0.59302 z m 1.23948,-2.24851 c 0,-1.37685 -0.0391,-1.46806 -0.59532,-1.38907 -0.48166,0.0684 -0.6113,0.27927 -0.67908,1.10456 -0.10851,1.32107 0.0747,1.75812 0.73693,1.75812 0.4759,0 0.53747,-0.1688 0.53747,-1.47361 z m 1.5875,2.06807 c 0,-0.1096 0.41672,-0.7854 0.92604,-1.50178 0.99872,-1.40472 1.15679,-2.0031 0.52916,-2.0031 -0.21828,0 -0.39687,0.17859 -0.39687,0.39687 0,0.22049 -0.23519,0.39688 -0.52917,0.39688 -0.29104,0 -0.52916,-0.10932 -0.52916,-0.24294 0,-1.16309 1.30419,-1.85563 2.28467,-1.2132 0.81285,0.5326 0.79652,1.38703 -0.0483,2.52922 l -0.67406,0.91129 0.71838,0.1323 c 0.39512,0.0728 0.7679,0.28112 0.82841,0.46302 0.08,0.24039 -0.3296,0.33073 -1.49953,0.33073 -0.88525,0 -1.60954,-0.0897 -1.60954,-0.19929 z m -12.06499,-6.11198 c -1.53152,-1.12059 -2.11126,-1.84332 -1.76023,-2.19435 0.21166,-0.21166 0.69345,0.0564 1.76646,0.98275 1.33236,1.15028 1.85145,1.96662 1.25054,1.96662 -0.12369,0 -0.68924,-0.33976 -1.25677,-0.75502 z m 18.63988,0.24387 c -0.0218,-0.15543 -0.0516,-0.37508 -0.0661,-0.48812 -0.0146,-0.11303 0.48479,-0.66739 1.10964,-1.23191 0.85206,-0.76978 1.21171,-0.95081 1.43848,-0.72404 0.22677,0.22678 0.14117,0.4751 -0.34236,0.9932 -0.92221,0.98817 -2.0931,1.78214 -2.13962,1.45087 z m -3.24972,-2.37033 c -0.0801,-0.1296 0.18077,-0.44267 0.5797,-0.69571 0.39894,-0.25304 1.05354,-0.76534 1.45468,-1.13845 0.58934,-0.54815 0.79251,-0.61349 1.05834,-0.3404 0.26405,0.27126 0.10033,0.54247 -0.82953,1.37409 -1.11561,0.99775 -1.95728,1.29544 -2.26319,0.80047 z m -13.72568,-1.11457 c -0.78504,-0.6471 -0.93235,-0.89781 -0.69534,-1.1834 0.24757,-0.2983 0.47795,-0.21357 1.30321,0.47928 0.55137,0.4629 0.94347,0.99543 0.87134,1.1834 -0.18954,0.49393 -0.36912,0.43575 -1.47921,-0.47928 z m 9.46176,-0.61073 c -0.52242,-0.38201 -0.44322,-0.44772 1.1402,-0.94596 0.62012,-0.19513 1.61021,-0.76798 2.20021,-1.273 0.79233,-0.6782 1.15025,-0.84068 1.36932,-0.62161 0.55071,0.5507 -1.31244,2.06499 -3.62033,2.94245 -0.42625,0.16206 -0.77275,0.12965 -1.0894,-0.10188 z m -6.93649,-1.594 c -0.76369,-0.7025 -0.91709,-0.98117 -0.67498,-1.22614 0.24281,-0.24567 0.56616,-0.10061 1.43669,0.64453 0.61785,0.52885 1.22099,0.96155 1.34032,0.96155 0.11933,0 0.21696,0.11907 0.21696,0.26459 0,0.60189 -1.38137,0.21796 -2.31899,-0.64453 z m 4.10472,-0.73207 c -1.24002,-0.32933 -2.78579,-1.69793 -2.37815,-2.10557 0.20104,-0.20104 0.57111,-0.0634 1.27704,0.47507 0.82327,0.62793 1.25098,0.75814 2.49038,0.75814 1.2394,0 1.66711,-0.13021 2.49037,-0.75814 0.70594,-0.53845 1.076,-0.67611 1.27705,-0.47507 0.43901,0.43902 -1.16838,1.77701 -2.55394,2.12589 -1.33508,0.33618 -1.25821,0.33678 -2.60275,-0.0203 z"
         id="path4589"
         inkscape:connector-curvature="0" />
      <path
         style="fill:#c6c6c6;stroke-width:0.26458332"
         d="m 171.28967,283.05572 c -0.50299,-0.34134 -1.26375,-0.70781 -1.69057,-0.81438 -3.65538,-0.91264 -4.7837,-5.42581 -1.95,-7.79983 0.27734,-0.23235 0.78325,-0.95824 1.12424,-1.61309 0.84852,-1.6295 2.61417,-2.70976 4.67239,-2.85864 1.90516,-0.13781 3.22706,0.27994 4.4866,1.41787 0.6995,0.63195 1.07753,0.80878 1.35448,0.63358 0.2113,-0.13367 0.94059,-0.24486 1.62065,-0.24709 0.94798,-0.003 1.4264,0.15577 2.05052,0.68093 0.44773,0.37674 0.81405,0.83071 0.81405,1.00883 0,0.17812 0.36782,0.67355 0.81737,1.10096 1.1281,1.07253 1.56464,2.00847 1.55953,3.34365 -0.01,2.61252 -2.11914,4.44145 -5.13049,4.4489 -0.88662,0.002 -2.06995,0.16341 -2.62961,0.35826 -0.58814,0.20477 -1.36976,0.28022 -1.85209,0.17878 -0.58445,-0.12292 -1.07234,-0.0324 -1.62825,0.3022 -1.10161,0.66299 -2.5153,0.60794 -3.61882,-0.14093 z m 3.17952,-1.10407 c 0.74383,-0.6259 0.86396,-0.6471 1.97818,-0.34909 1.02046,0.27293 1.2811,0.25513 1.8649,-0.12739 0.48121,-0.3153 1.24826,-0.44466 2.63664,-0.44466 1.60792,0 2.08839,-0.10256 2.68721,-0.57359 1.73554,-1.36518 1.74558,-3.80423 0.0211,-5.11958 -0.49062,-0.37422 -0.96029,-0.95234 -1.04372,-1.28471 -0.14518,-0.57848 -1.1261,-1.22421 -1.85968,-1.22421 -0.19112,0 -0.77555,0.29049 -1.29873,0.64553 l -0.95123,0.64552 -0.54556,-0.88273 c -1.04732,-1.69459 -3.29266,-2.536 -5.31459,-1.99155 -1.31264,0.35346 -3.15915,2.01554 -3.15915,2.84362 0,0.29261 -0.41001,0.84162 -0.91777,1.22891 -1.19353,0.91035 -1.64064,2.39536 -1.10626,3.67431 0.49696,1.18939 1.62416,2.03848 2.70617,2.03848 0.54519,0 1.00575,0.18233 1.22109,0.4834 0.87031,1.2169 1.96983,1.37309 3.08143,0.43774 z m 0.65503,-2.52749 c -0.76907,-0.28725 -1.14177,-1.04314 -1.14177,-2.3157 0,-1.08815 0.61214,-2.09676 1.32291,-2.17973 1.54696,-0.1806 2.11794,0.41888 2.11262,2.21807 -0.002,0.75359 -0.094,1.51154 -0.20382,1.68434 -0.32005,0.50333 -1.46229,0.82744 -2.08994,0.59302 z m 1.23948,-2.24851 c 0,-1.37685 -0.0391,-1.46806 -0.59532,-1.38907 -0.48166,0.0684 -0.6113,0.27927 -0.67908,1.10456 -0.10851,1.32107 0.0747,1.75812 0.73693,1.75812 0.4759,0 0.53747,-0.1688 0.53747,-1.47361 z m -5.54694,1.75558 c -0.30305,-0.56624 -0.3688,-2.63721 -0.10552,-3.32331 0.39373,-1.02603 2.45079,-1.0097 2.84692,0.0226 0.26684,0.69537 -0.32256,1.14606 -0.74717,0.57134 -0.18815,-0.25466 -0.53732,-0.46302 -0.77594,-0.46302 -0.34949,0 -0.43385,0.28295 -0.43385,1.45521 0,1.27882 0.0641,1.45521 0.52916,1.45521 0.29398,0 0.52917,-0.17639 0.52917,-0.39688 0,-0.4418 0.67268,-0.54224 0.92266,-0.13776 0.0881,0.14252 0.0314,0.4997 -0.12598,0.79375 -0.39723,0.74222 -2.2459,0.75823 -2.63945,0.0229 z m 7.13444,0.28443 c 0,-0.12504 0.41556,-0.75012 0.92347,-1.38906 0.92041,-1.15786 1.1997,-2.08776 0.62705,-2.08776 -0.16586,0 -0.4555,0.20836 -0.64365,0.46302 -0.48799,0.66051 -1.07515,0.0812 -0.67518,-0.66615 0.3619,-0.67621 1.14783,-0.87495 1.92878,-0.48773 0.87238,0.43255 0.90665,1.43501 0.0869,2.54294 l -0.68513,0.92604 0.71838,0.1323 c 0.39512,0.0728 0.7679,0.28112 0.82841,0.46302 0.08,0.24039 -0.3296,0.33073 -1.49953,0.33073 -0.88525,0 -1.60954,-0.10231 -1.60954,-0.22735 z m -12.38857,-6.37513 c -1.55293,-1.22753 -1.79072,-1.54907 -1.41985,-1.91994 0.31683,-0.31683 3.22508,2.04556 3.22508,2.61975 0,0.56396 -0.40511,0.40691 -1.80523,-0.69981 z m 18.85998,0.23487 c -0.0959,-0.1552 -0.13089,-0.30403 -0.0777,-0.33073 0.0532,-0.0267 0.60071,-0.51901 1.21673,-1.09404 0.90743,-0.84705 1.18287,-0.98094 1.45114,-0.70539 0.26689,0.27414 0.10638,0.54111 -0.82738,1.37623 -1.2268,1.0972 -1.48294,1.20674 -1.76279,0.75393 z m -3.16412,-2.09906 c -0.0899,-0.14552 -0.0542,-0.26458 0.0794,-0.26458 0.13363,0 0.80278,-0.49278 1.48701,-1.09507 0.97487,-0.85811 1.31212,-1.02496 1.55861,-0.77106 0.24506,0.25243 0.0515,0.55263 -0.87608,1.35893 -1.17886,1.0247 -1.93275,1.28341 -2.24896,0.77178 z m -13.60491,-1.04109 c -0.65733,-0.53648 -0.8512,-0.86388 -0.71765,-1.21191 0.16572,-0.43186 0.26339,-0.40443 1.03506,0.29071 0.46865,0.42216 0.94642,0.83902 1.06173,0.92635 0.11531,0.0873 0.0548,0.28729 -0.13443,0.44435 -0.2572,0.21346 -0.57149,0.1 -1.24471,-0.4495 z m 9.33281,-0.67676 c -0.53786,-0.39596 -0.61077,-0.34285 1.25704,-0.9157 0.52453,-0.16087 1.4551,-0.72168 2.06792,-1.24624 0.8168,-0.69914 1.19268,-0.8753 1.40808,-0.65989 0.37876,0.37876 -0.33138,1.18992 -1.78354,2.03725 -1.75229,1.02246 -2.39436,1.19326 -2.9495,0.78458 z m -6.86247,-1.56712 c -0.80452,-0.70163 -0.9662,-0.97583 -0.72294,-1.22614 0.24485,-0.25196 0.55883,-0.11228 1.43669,0.63914 0.61785,0.52885 1.22802,0.96155 1.35593,0.96155 0.12792,0 0.15899,0.11907 0.0691,0.26459 -0.3093,0.50046 -1.10446,0.26283 -2.13873,-0.63914 z m 4.05446,-0.78873 c -1.53422,-0.56079 -2.74984,-1.66689 -2.31717,-2.1084 0.12528,-0.12783 0.66344,0.10591 1.21836,0.52917 0.82327,0.62793 1.25098,0.75814 2.49038,0.75814 1.2394,0 1.66711,-0.13021 2.49037,-0.75814 1.12934,-0.86139 1.82156,-0.63605 0.943,0.30698 -1.21988,1.30939 -3.25513,1.84604 -4.82494,1.27225 z"
         id="path4587"
         inkscape:connector-curvature="0" />
      <path
         style="fill:#b0b0b0;stroke-width:0.26458332"
         d="m 171.23439,283.0182 c -0.53341,-0.36198 -1.29416,-0.73446 -1.69057,-0.82774 -2.00761,-0.47241 -3.49887,-2.31279 -3.49887,-4.31797 0,-1.27198 0.44728,-2.25447 1.45317,-3.19198 0.39033,-0.36381 0.86123,-1.01865 1.04643,-1.45521 0.80667,-1.9015 3.0725,-3.29189 5.38025,-3.30148 1.65392,-0.007 2.80177,0.42579 4.05969,1.53026 0.65745,0.57724 1.03035,0.73923 1.30367,0.56631 0.21056,-0.13321 0.93341,-0.24402 1.60634,-0.24625 1.31851,-0.004 1.51928,0.14122 3.64321,2.64178 1.35788,1.59868 1.61557,2.14934 1.61557,3.45231 0,1.3988 -0.8898,3.01496 -2.05714,3.73641 -0.86069,0.53194 -3.32073,0.93379 -6.96176,1.13722 -0.81305,0.0454 -1.84894,0.27426 -2.30197,0.50853 -1.18939,0.61506 -2.47145,0.53233 -3.59802,-0.23219 z m 2.8316,-0.70799 c 0.31785,-0.1693 0.7137,-0.49201 0.87966,-0.71714 0.25087,-0.34032 0.42025,-0.35534 1.00464,-0.0891 0.93928,0.42796 1.78912,0.40395 2.41336,-0.0682 0.34513,-0.26105 1.17949,-0.39122 2.54381,-0.39688 1.76825,-0.007 2.13083,-0.0931 2.80995,-0.66451 1.6707,-1.40581 1.70495,-3.60318 0.0775,-4.97259 -0.41872,-0.35232 -0.95265,-1.0106 -1.18651,-1.46284 -0.58608,-1.13336 -1.99842,-1.41527 -3.08091,-0.61495 -0.98556,0.72866 -1.10893,0.71289 -1.65503,-0.2116 -0.94459,-1.59906 -3.21384,-2.40981 -5.22737,-1.86762 -1.28953,0.34723 -3.16057,2.01029 -3.16058,2.80926 0,0.27178 -0.41244,0.82323 -0.91652,1.22544 -1.17919,0.94087 -1.68483,2.46418 -1.20359,3.62598 0.49498,1.19501 1.72486,2.12502 2.81018,2.12502 0.57643,0 0.97143,0.14954 1.06941,0.40486 0.16758,0.43671 1.32919,1.1548 1.89594,1.17204 0.19147,0.006 0.60819,-0.12791 0.92605,-0.2972 z m -3.10735,-3.28298 c -0.48054,-0.48054 -0.57143,-2.76775 -0.14188,-3.57037 0.19945,-0.37268 0.55646,-0.51177 1.3136,-0.51177 0.75715,0 1.11416,0.13909 1.31361,0.51177 0.38069,0.71134 0.34928,0.81115 -0.25527,0.81115 -0.29105,0 -0.52917,-0.11907 -0.52917,-0.26459 0,-0.14552 -0.23813,-0.26458 -0.52917,-0.26458 -0.46502,0 -0.52916,0.17639 -0.52916,1.45521 0,1.17225 0.0844,1.45521 0.43385,1.45521 0.23862,0 0.57774,-0.19679 0.75361,-0.4373 0.30731,-0.42027 0.9292,-0.30688 0.9292,0.16943 0,0.48422 -0.86341,1.06162 -1.5875,1.06162 -0.41577,0 -0.94305,-0.1871 -1.17172,-0.41578 z m 3.51922,-0.0218 c -0.20498,-0.24699 -0.36312,-1.03587 -0.36312,-1.81142 0,-0.77555 0.15814,-1.56443 0.36312,-1.81142 0.4879,-0.58787 1.95692,-0.56073 2.50629,0.0463 0.62597,0.6917 0.59636,2.99488 -0.046,3.57618 -0.62254,0.56339 -1.99287,0.56358 -2.46032,3.5e-4 z m 1.88584,-1.82982 c 0,-1.37685 -0.0391,-1.46806 -0.59532,-1.38907 -0.48166,0.0684 -0.6113,0.27927 -0.67908,1.10456 -0.10851,1.32107 0.0747,1.75812 0.73693,1.75812 0.4759,0 0.53747,-0.1688 0.53747,-1.47361 z m 1.85208,1.91761 c 0,-0.19235 0.35387,-0.81743 0.78639,-1.38906 0.85742,-1.1332 1.02858,-1.96536 0.40423,-1.96536 -0.21828,0 -0.39687,0.11906 -0.39687,0.26458 0,0.14552 -0.23813,0.26459 -0.52917,0.26459 -0.29104,0 -0.52916,-0.11056 -0.52916,-0.24569 0,-0.50425 0.85746,-1.07723 1.61207,-1.07723 1.42877,0 1.58298,1.39897 0.3427,3.10885 -0.41766,0.57579 -0.40907,0.59532 0.26191,0.59532 0.44026,0 0.69373,0.145 0.69373,0.39687 0,0.29986 -0.32338,0.39688 -1.32291,0.39688 -0.9203,0 -1.32292,-0.10644 -1.32292,-0.34975 z m -12.65315,-6.25273 c -1.56694,-1.2386 -1.81947,-1.58626 -1.35893,-1.87089 0.38549,-0.23825 3.15519,2.02809 3.16082,2.58639 0.006,0.54855 -0.41298,0.38237 -1.80189,-0.7155 z m 18.88031,0.26778 c -0.0847,-0.13711 0.35383,-0.72304 0.97458,-1.30207 0.89086,-0.83098 1.20569,-0.98886 1.4943,-0.74933 0.29935,0.24844 0.16162,0.48453 -0.75964,1.30207 -1.17444,1.04223 -1.45279,1.16426 -1.70924,0.74933 z m -3.05216,-2.13197 c -0.21828,-0.14106 -0.26481,-0.2583 -0.1034,-0.26053 0.16142,-0.002 0.85331,-0.49683 1.53754,-1.09912 0.97487,-0.85811 1.31212,-1.02496 1.55861,-0.77106 0.24506,0.25243 0.0515,0.55263 -0.87608,1.35893 -1.26254,1.09744 -1.48643,1.17907 -2.11667,0.77178 z m -13.76457,-1.19706 c -1.22372,-1.26256 -0.71807,-1.71613 0.58096,-0.52111 0.74301,0.68351 0.89393,0.95826 0.64148,1.16778 -0.2417,0.20058 -0.56914,0.0274 -1.22244,-0.64667 z m 9.14792,-0.63308 c -0.0825,-0.13345 0.42953,-0.43511 1.13779,-0.67035 0.70825,-0.23525 1.78857,-0.85642 2.4007,-1.38038 0.81587,-0.69835 1.19141,-0.87422 1.40681,-0.65881 0.40196,0.40196 -0.36119,1.21659 -2.04844,2.18663 -1.31285,0.7548 -2.60895,0.98875 -2.89686,0.52291 z m -6.62946,-1.42896 c -1.48308,-1.28202 -0.98424,-1.77511 0.58423,-0.57749 0.66714,0.50939 1.32194,0.92617 1.45513,0.92617 0.13318,0 0.16856,0.11907 0.0786,0.26459 -0.30651,0.49594 -1.1009,0.26592 -2.11798,-0.61327 z m 4.49923,-0.70126 c -1.06562,-0.24311 -1.7303,-0.62333 -2.46729,-1.41139 -0.86066,-0.9203 -0.25118,-1.19773 0.76071,-0.34628 0.92094,0.77492 2.24075,1.08794 3.55088,0.84216 0.50504,-0.0947 1.27651,-0.47372 1.71438,-0.84216 1.01224,-0.85175 1.621,-0.57396 0.7607,0.34712 -1.12285,1.2022 -2.81312,1.75418 -4.31938,1.41055 z"
         id="path4585"
         inkscape:connector-curvature="0" />
      <path
         style="fill:#979797;stroke-width:0.26458332"
         d="m 171.0457,282.8874 c -0.64036,-0.43391 -1.39505,-0.7911 -1.67709,-0.79375 -0.85672,-0.008 -2.2426,-1.1328 -2.79842,-2.27116 -0.90056,-1.84439 -0.55168,-3.79093 0.92161,-5.14198 0.39672,-0.36381 0.94083,-1.08945 1.20914,-1.61255 1.736,-3.38457 6.26622,-4.18759 9.24413,-1.6386 0.86422,0.73973 1.13946,0.84838 1.5681,0.61897 0.28595,-0.15303 0.91469,-0.2778 1.39719,-0.27725 0.92166,0.001 2.59709,0.85514 2.59709,1.32395 0,0.15091 0.47062,0.78495 1.04582,1.40897 1.7115,1.85675 2.01989,3.38283 1.07477,5.31849 -0.79332,1.62476 -1.90399,2.23553 -4.66348,2.56452 -1.29355,0.15422 -3.00675,0.30862 -3.80711,0.34312 -0.80037,0.0345 -1.83625,0.2615 -2.30197,0.50446 -1.27658,0.66599 -2.47585,0.5567 -3.80978,-0.34719 z m 3.19056,-0.6607 c 0.41619,-0.21522 0.80669,-0.54124 0.86777,-0.72449 0.0888,-0.26628 0.25546,-0.2674 0.83011,-0.006 0.95469,0.43498 1.80202,0.41376 2.42951,-0.0608 0.34036,-0.25744 1.16913,-0.3913 2.45714,-0.39688 2.25614,-0.01 3.26018,-0.46514 3.87301,-1.75657 0.72402,-1.52576 0.37356,-2.77709 -1.15975,-4.14086 -0.4512,-0.40131 -0.82035,-0.90057 -0.82035,-1.10948 0,-0.53378 -1.04362,-1.20359 -1.87528,-1.20359 -0.38456,0 -1.01417,0.24776 -1.39913,0.55057 l -0.69994,0.55057 -1.15782,-1.1913 c -2.59696,-2.67208 -6.66976,-2.12386 -8.00752,1.07786 -0.21977,0.52598 -0.68937,1.18427 -1.04357,1.46288 -0.76749,0.60371 -1.42716,1.80065 -1.42716,2.58953 0,1.60791 1.54344,3.16198 3.14037,3.16198 0.54638,0 0.90447,0.17697 1.10095,0.54409 0.52688,0.98449 1.72598,1.2549 2.89166,0.6521 z m -3.27762,-3.19947 c -0.2745,-0.27449 -0.41578,-0.8974 -0.41578,-1.83318 0,-1.61371 0.4374,-2.25121 1.54026,-2.24491 0.83978,0.005 1.21521,0.22681 1.4473,0.85585 0.22128,0.59973 -0.48317,0.62395 -1.07032,0.0368 -0.3919,-0.3919 -0.45429,-0.38783 -0.77485,0.0506 -0.36735,0.50238 -0.45834,1.63397 -0.18804,2.33838 0.18329,0.47764 1.0685,0.56768 1.21648,0.12373 0.054,-0.16213 0.30535,-0.25142 0.55845,-0.19843 0.42437,0.0888 0.42756,0.14268 0.0411,0.69165 -0.49654,0.7053 -1.73443,0.79969 -2.35458,0.17954 z m 3.51922,-0.0218 c -0.20498,-0.24699 -0.36312,-1.03587 -0.36312,-1.81142 0,-0.77555 0.15814,-1.56443 0.36312,-1.81142 0.4879,-0.58787 1.95692,-0.56073 2.50629,0.0463 0.62597,0.6917 0.59636,2.99488 -0.046,3.57618 -0.62254,0.56339 -1.99287,0.56358 -2.46032,3.5e-4 z m 1.88584,-1.78311 c 0,-0.96821 -0.11722,-1.47189 -0.36464,-1.56683 -0.58749,-0.22544 -0.95828,0.37327 -0.95828,1.54734 0,1.21914 0.13164,1.44639 0.83785,1.44639 0.4104,0 0.48507,-0.21963 0.48507,-1.4269 z m 1.85208,1.86015 c 0,-0.19827 0.35719,-0.80995 0.79375,-1.3593 0.84371,-1.06167 1.03851,-1.98437 0.41892,-1.98437 -0.20615,0 -0.41904,0.13265 -0.47308,0.29478 -0.054,0.16213 -0.30535,0.25143 -0.55845,0.19844 -0.42437,-0.0888 -0.42756,-0.14268 -0.0411,-0.69166 0.55282,-0.78523 1.84343,-0.80936 2.25404,-0.0421 0.32751,0.61196 -0.0298,1.82231 -0.70277,2.38087 -0.55913,0.46404 -0.44266,0.77013 0.29304,0.77013 0.41158,0 0.66146,0.14993 0.66146,0.39687 0,0.29986 -0.32338,0.39688 -1.32291,0.39688 -0.9402,0 -1.32292,-0.10429 -1.32292,-0.3605 z m -12.78382,-6.40429 c -1.24555,-0.9778 -1.48012,-1.27917 -1.23013,-1.58039 0.2566,-0.30919 0.55019,-0.1606 1.73413,0.87763 1.27554,1.11857 1.78737,1.91159 1.23347,1.91113 -0.10914,-9e-5 -0.891,-0.54386 -1.73747,-1.20837 z m 19.02862,0.45862 c -0.075,-0.12142 0.37481,-0.72251 0.99966,-1.33576 0.96053,-0.94268 1.18528,-1.05575 1.45427,-0.73163 0.2608,0.31425 0.10861,0.55508 -0.84409,1.33575 -1.23143,1.00907 -1.393,1.0825 -1.60984,0.73164 z m -2.99765,-2.06915 c -0.18972,-0.0768 0.1953,-0.52543 0.92604,-1.07904 0.68792,-0.52117 1.32675,-1.06319 1.41962,-1.20447 0.18778,-0.28566 0.75719,-0.0273 0.75719,0.34357 0,0.25198 -2.34664,2.12759 -2.61774,2.09229 -0.0882,-0.0115 -0.30651,-0.08 -0.48511,-0.15235 z m -13.83048,-1.28198 c -0.59904,-0.61804 -0.81036,-1.01526 -0.63397,-1.19165 0.17639,-0.17639 0.5641,0.0444 1.16313,0.66249 0.59904,0.61805 0.81036,1.01526 0.63397,1.19165 -0.17639,0.17639 -0.5641,-0.0444 -1.16313,-0.66249 z m 9.27421,-0.64733 c -0.29664,-0.18767 -0.20709,-0.28477 0.39688,-0.43036 1.08951,-0.26264 2.54768,-1.02313 3.50291,-1.8269 0.52907,-0.44519 0.87151,-0.58019 0.98909,-0.38994 0.2659,0.43024 -0.84063,1.48092 -2.35371,2.23492 -1.42763,0.71142 -1.93255,0.79353 -2.53517,0.41228 z m -6.76199,-1.42114 c -1.48308,-1.28202 -0.98424,-1.77511 0.58423,-0.57749 0.66714,0.50939 1.32194,0.92617 1.45513,0.92617 0.13318,0 0.16856,0.11907 0.0786,0.26459 -0.30651,0.49594 -1.1009,0.26592 -2.11798,-0.61327 z m 3.17632,-1.20192 c -0.43656,-0.26967 -1.00987,-0.73365 -1.27401,-1.03108 -0.66342,-0.74703 -0.0628,-1.08204 0.69828,-0.38952 0.90815,0.82628 1.64728,1.11912 2.82469,1.11912 1.1774,0 1.91653,-0.29284 2.82468,-1.11912 0.31665,-0.2881 0.71256,-0.43925 0.87979,-0.3359 0.37252,0.23023 -0.58838,1.32945 -1.64081,1.87703 -1.03468,0.53835 -3.35075,0.47361 -4.31262,-0.12053 z"
         id="path4583"
         inkscape:connector-curvature="0" />
      <path
         style="fill:#868686;stroke-width:0.26458332"
         d="m 171.59392,283.22415 c -0.3598,-0.24871 -0.81151,-0.6059 -1.00381,-0.79375 -0.1923,-0.18786 -0.58516,-0.34156 -0.87303,-0.34156 -1.39127,0 -3.26414,-1.74463 -3.55876,-3.31508 -0.28635,-1.52638 0.10198,-2.78336 1.1987,-3.88008 0.55198,-0.55198 1.15133,-1.36025 1.33189,-1.79616 0.45583,-1.10048 2.14777,-2.56018 3.35658,-2.89585 2.21115,-0.614 4.62259,-0.041 6.20952,1.47544 0.57828,0.55261 0.79479,0.61921 1.23938,0.38128 0.29627,-0.15857 0.93347,-0.28786 1.41597,-0.28731 0.90775,0.001 2.59709,0.85263 2.59709,1.30921 0,0.1428 0.52988,0.85626 1.17752,1.58547 1.26173,1.42064 1.64251,2.57511 1.35494,4.108 -0.20194,1.07641 -1.22116,2.37693 -2.30006,2.93485 -0.79466,0.41093 -3.98294,0.90259 -6.7147,1.03546 -0.87312,0.0425 -1.94468,0.26887 -2.38125,0.50311 -1.03054,0.55295 -2.2298,0.5439 -3.04998,-0.023 z m 3.12383,-1.25902 c 0.6959,-0.58556 0.86166,-0.6205 1.6078,-0.33887 0.66287,0.25021 1.00661,0.24012 1.69179,-0.0496 0.47295,-0.20001 1.8124,-0.43637 2.97656,-0.52525 2.50079,-0.19093 3.08298,-0.46898 3.69864,-1.76639 0.67843,-1.42968 0.39109,-2.65386 -0.91451,-3.89614 -0.58538,-0.55699 -1.06433,-1.17561 -1.06433,-1.37469 0,-0.51839 -1.05544,-1.18574 -1.87528,-1.18574 -0.38456,0 -1.02731,0.2581 -1.42834,0.57355 l -0.72915,0.57355 -0.89955,-1.08294 c -2.29007,-2.75694 -6.57323,-2.41667 -8.05282,0.63976 -0.32299,0.66722 -0.99041,1.58546 -1.48315,2.04054 -2.09402,1.93398 -0.85855,5.45763 1.91358,5.45763 0.43743,0 0.97934,0.29825 1.44221,0.79375 0.93276,0.99852 2.03792,1.04848 3.11655,0.14087 z m -3.737,-3.00598 c -0.58318,-0.6444 -0.5978,-3.0226 -0.0221,-3.59829 0.62015,-0.62015 1.85803,-0.52576 2.35458,0.17954 0.37243,0.52901 0.37415,0.60483 0.0154,0.68078 -0.22203,0.047 -0.60418,-0.11503 -0.84922,-0.36007 -0.41766,-0.41766 -0.46735,-0.4157 -0.79417,0.0312 -0.44807,0.61277 -0.44807,1.99061 0,2.60338 0.32056,0.43839 0.38295,0.44247 0.77485,0.0506 0.51407,-0.51407 0.99318,-0.55375 0.99318,-0.0823 0,0.99042 -1.71373,1.33358 -2.47253,0.4951 z m 3.65703,0.11522 c -0.38993,-0.28513 -0.50414,-0.69807 -0.50414,-1.8228 0,-0.82473 0.15309,-1.63863 0.35367,-1.88033 0.47973,-0.57804 1.9523,-0.54401 2.49684,0.0577 0.62597,0.6917 0.59636,2.99488 -0.046,3.57618 -0.59062,0.5345 -1.62168,0.56554 -2.3004,0.0693 z m 1.82852,-1.03873 c 0.38532,-1.43669 -0.17179,-2.72129 -1.0363,-2.38954 -0.47186,0.18107 -0.54429,2.47767 -0.0924,2.92956 0.40857,0.40857 0.94285,0.15295 1.1287,-0.54002 z m 1.75684,1.07664 c 0.004,-0.1819 0.36124,-0.79843 0.79375,-1.37005 0.79354,-1.04878 0.99469,-1.84342 0.53807,-2.12563 -0.13658,-0.0844 -0.35652,0.0399 -0.48875,0.27615 -0.13224,0.23629 -0.44047,0.38763 -0.68496,0.33629 -0.40837,-0.0857 -0.41043,-0.14174 -0.0254,-0.68864 0.55282,-0.78523 1.84343,-0.80936 2.25404,-0.0421 0.32751,0.61196 -0.0298,1.82231 -0.70278,2.38087 -0.55912,0.46404 -0.44265,0.77013 0.29305,0.77013 0.41158,0 0.66146,0.14993 0.66146,0.39687 0,0.29986 -0.32338,0.39688 -1.32291,0.39688 -0.88587,0 -1.32049,-0.10927 -1.31556,-0.33073 z m -12.70924,-6.41769 c -1.40613,-1.15344 -1.68573,-1.6229 -0.92422,-1.5518 0.50801,0.0474 2.75889,2.00876 2.76951,2.41324 0.0143,0.54549 -0.32091,0.389 -1.84529,-0.86144 z m 18.9321,0.41867 c -0.23997,-0.38829 2.20813,-2.27107 2.53194,-1.94726 0.18677,0.18677 -0.0957,0.57396 -0.89871,1.23198 -1.2559,1.02912 -1.4002,1.09232 -1.63323,0.71528 z m -2.92293,-2.15156 c -0.29104,-0.11701 -0.39589,-0.22112 -0.233,-0.23135 0.16289,-0.0102 0.89813,-0.49788 1.63386,-1.08368 0.93633,-0.74552 1.39671,-0.96958 1.53441,-0.74679 0.12052,0.195 -0.15365,0.6147 -0.70782,1.08352 -1.25751,1.06385 -1.61936,1.22277 -2.22745,0.9783 z m -13.89062,-1.17599 c -0.59904,-0.61804 -0.81036,-1.01526 -0.63397,-1.19165 0.17639,-0.17639 0.5641,0.0444 1.16313,0.66249 0.59904,0.61805 0.81036,1.01526 0.63397,1.19165 -0.17639,0.17639 -0.5641,-0.0444 -1.16313,-0.66249 z m 9.30164,-0.5804 c -0.19692,-0.0785 0.32151,-0.41698 1.16161,-0.75842 0.83448,-0.33916 1.96978,-0.98032 2.52287,-1.4248 1.32722,-1.06658 1.77913,-0.51809 0.48612,0.59 -1.54252,1.32192 -3.23202,1.96733 -4.1706,1.59322 z m -6.76577,-1.49458 c -1.4804,-1.25246 -1.01111,-1.74324 0.53698,-0.56156 0.66056,0.50421 1.34072,0.91858 1.51148,0.9208 0.18007,0.002 0.14377,0.11178 -0.0864,0.26054 -0.6136,0.39654 -0.84844,0.32236 -1.96204,-0.61978 z m 3.41725,-1.07664 c -1.0652,-0.47343 -2.12277,-1.6264 -1.7201,-1.87527 0.16724,-0.10335 0.56314,0.0478 0.87979,0.3359 0.90815,0.82628 1.64728,1.11912 2.82469,1.11912 1.1774,0 1.91653,-0.29284 2.82468,-1.11912 0.84572,-0.76947 1.34018,-0.31761 0.56865,0.51967 -1.22415,1.32849 -3.6486,1.78821 -5.37771,1.0197 z"
         id="path4581"
         inkscape:connector-curvature="0" />
      <path
         style="fill:#787878;stroke-width:0.26458332"
         d="m 171.79297,283.30446 c -0.40385,-0.21857 -0.91837,-0.58151 -1.14338,-0.80651 -0.22501,-0.22501 -0.64464,-0.40911 -0.93251,-0.40911 -1.39127,0 -3.26414,-1.74463 -3.55876,-3.31508 -0.28828,-1.53668 0.10133,-2.78271 1.21984,-3.90122 0.56361,-0.56361 1.10172,-1.26727 1.19579,-1.56368 0.0941,-0.29641 0.58302,-0.99493 1.08652,-1.55225 1.1677,-1.29249 3.06393,-1.9673 4.91285,-1.74832 1.39056,0.16469 3.4527,1.20512 3.87138,1.95326 0.21161,0.37812 0.3556,0.39742 0.94877,0.12716 1.51109,-0.6885 3.83993,-0.0114 4.23429,1.23114 0.0922,0.29037 0.6287,0.98908 1.1923,1.55269 2.11397,2.11397 1.5799,5.46047 -1.09194,6.84213 -0.806,0.4168 -4.30167,0.92389 -6.86136,0.99532 -0.81472,0.0227 -1.67325,0.20064 -1.90785,0.39534 -0.65877,0.54673 -2.32953,0.65182 -3.16594,0.19913 z m 2.9526,-1.36275 c 0.67931,-0.5716 0.89195,-0.62908 1.37361,-0.3713 0.32131,0.17196 0.93167,0.22983 1.39938,0.13267 0.45623,-0.0948 1.7874,-0.26921 2.95815,-0.38763 2.63217,-0.26626 3.73643,-0.80333 4.26813,-2.07586 0.58342,-1.39633 0.30013,-2.65809 -0.83135,-3.70275 -0.51436,-0.4749 -0.93521,-0.98633 -0.93521,-1.1365 0,-0.54508 -1.31123,-1.57192 -2.00726,-1.57192 -0.38963,0 -1.09477,0.23879 -1.567,0.53065 l -0.8586,0.53064 -0.73143,-0.95896 c -2.128,-2.78995 -6.77055,-2.42854 -8.12458,0.63247 -0.2869,0.6486 -0.92293,1.5316 -1.4134,1.96224 -2.17496,1.90964 -1.11006,5.06082 1.90114,5.62573 0.49213,0.0923 1.18705,0.46013 1.54427,0.81734 0.85335,0.85335 1.99011,0.84327 3.02415,-0.0268 z m -3.76482,-2.98256 c -0.62598,-0.69169 -0.59637,-2.99487 0.046,-3.57618 0.85584,-0.77453 2.42656,-0.42429 2.42656,0.54108 0,0.46459 -0.47674,0.43418 -0.97297,-0.062 -0.62073,-0.62073 -1.1437,-0.0117 -1.1437,1.33205 0,1.34369 0.52297,1.95278 1.1437,1.33205 0.49623,-0.49624 0.97297,-0.52664 0.97297,-0.062 0,0.99042 -1.71373,1.33358 -2.47253,0.4951 z m 3.87814,0.27598 c -0.97412,-0.6194 -1.029,-3.51901 -0.0763,-4.02891 0.82442,-0.44121 1.78861,-0.29971 2.22751,0.32691 0.52975,0.75632 0.52975,2.56552 0,3.32184 -0.41357,0.59045 -1.51455,0.78502 -2.15126,0.38016 z m 1.4955,-0.83306 c 0.65179,-1.21789 0.061,-3.13411 -0.85757,-2.78161 -0.35243,0.13524 -0.45604,0.49416 -0.45604,1.57985 0,1.29254 0.16289,1.61669 0.85059,1.69264 0.10402,0.0115 0.31238,-0.20941 0.46302,-0.49088 z m 1.86875,0.71021 c 0.004,-0.1819 0.36124,-0.79843 0.79375,-1.37005 0.80419,-1.06284 0.99419,-1.84373 0.51994,-2.13684 -0.14655,-0.0906 -0.33788,0.0215 -0.42518,0.24897 -0.19155,0.49917 -0.89587,0.55395 -0.89587,0.0697 0,-1.01054 1.88751,-1.37236 2.37802,-0.45584 0.29884,0.55839 -0.18534,2.14557 -0.76352,2.5029 -0.51132,0.31602 -0.31381,0.67815 0.36987,0.67815 0.41158,0 0.66146,0.14993 0.66146,0.39687 0,0.29986 -0.32338,0.39688 -1.32291,0.39688 -0.88587,0 -1.32049,-0.10927 -1.31556,-0.33073 z m -12.60114,-6.35 c -1.29333,-1.10397 -1.68262,-1.65365 -1.17114,-1.65365 0.43008,0 2.917,2.08211 2.917,2.44218 0,0.55559 -0.36355,0.39139 -1.74586,-0.78853 z m 18.94378,0.22067 c 0,-0.55619 2.093,-2.13611 2.40994,-1.81917 0.16898,0.16898 -0.15138,0.59532 -0.92155,1.22642 -1.3048,1.06919 -1.48839,1.1423 -1.48839,0.59275 z m -3.04271,-2.02125 c -0.29104,-0.11701 -0.39103,-0.22112 -0.2222,-0.23135 0.16884,-0.0102 0.90711,-0.49297 1.64061,-1.07277 1.521,-1.20228 2.2163,-0.95258 0.79382,0.28509 -1.26264,1.09858 -1.61297,1.25995 -2.21223,1.01903 z m -13.89062,-1.17599 c -0.59904,-0.61804 -0.81036,-1.01526 -0.63397,-1.19165 0.17639,-0.17639 0.5641,0.0444 1.16313,0.66249 0.59904,0.61805 0.81036,1.01526 0.63397,1.19165 -0.17639,0.17639 -0.5641,-0.0444 -1.16313,-0.66249 z m 9.30164,-0.5804 c -0.19692,-0.0785 0.32151,-0.41698 1.16161,-0.75842 0.83448,-0.33916 1.96978,-0.98032 2.52287,-1.4248 1.32722,-1.06658 1.77913,-0.51809 0.48612,0.59 -1.54252,1.32192 -3.23202,1.96733 -4.1706,1.59322 z m -6.61611,-1.40563 c -0.60392,-0.43747 -1.09803,-0.89388 -1.09803,-1.01424 0,-0.56199 0.40517,-0.46079 1.49949,0.37452 0.65278,0.49828 1.32658,0.90779 1.49734,0.91001 0.30531,0.004 -0.32173,0.51289 -0.64203,0.52107 -0.0873,0.002 -0.65286,-0.35388 -1.25677,-0.79136 z m 3.26759,-1.20817 c -1.24281,-0.64638 -2.05342,-1.49439 -1.66057,-1.73719 0.19146,-0.11832 0.55286,-9e-4 0.86273,0.2803 1.62878,1.47811 4.40528,1.43976 5.6651,-0.0782 0.18194,-0.21923 0.50715,-0.33092 0.72269,-0.24822 0.32216,0.12363 0.28947,0.2594 -0.18375,0.76312 -1.30362,1.38763 -3.79556,1.85789 -5.4062,1.02022 z"
         id="path4579"
         inkscape:connector-curvature="0" />
      <path
         style="fill:#676767;stroke-width:0.26458332"
         d="m 171.73362,283.27367 c -0.43649,-0.23551 -0.88889,-0.59844 -1.00533,-0.80651 -0.11645,-0.20808 -0.50937,-0.37832 -0.87317,-0.37832 -1.52477,0 -3.38841,-1.67121 -3.6968,-3.31508 -0.28017,-1.49341 0.0901,-2.68383 1.19661,-3.847 0.56141,-0.59017 1.1676,-1.42757 1.34709,-1.86089 0.7998,-1.93088 3.63252,-3.37313 5.99039,-3.04995 1.33384,0.18283 3.35115,1.22884 3.75229,1.94563 0.21161,0.37812 0.3556,0.39742 0.94877,0.12716 1.51679,-0.6911 3.4134,-0.17245 4.10671,1.12301 0.20399,0.38116 0.81931,1.16441 1.36737,1.74054 1.56645,1.64667 1.69611,3.91258 0.31764,5.55079 -1.01309,1.20399 -1.95849,1.58579 -3.9267,1.58579 -1.08821,0 -2.0567,0.16063 -2.57053,0.42634 -0.56404,0.29168 -1.20756,0.38246 -2.03738,0.28742 -0.86262,-0.0988 -1.34072,-0.0244 -1.65541,0.25753 -0.67262,0.60268 -2.33822,0.71172 -3.26155,0.21354 z m 3.01195,-1.33196 c 0.64886,-0.54597 0.90433,-0.62245 1.32583,-0.39687 0.62785,0.33602 2.05754,0.3694 2.25332,0.0526 0.0771,-0.12474 1.13809,-0.28906 2.35777,-0.36516 2.44124,-0.1523 3.39017,-0.57987 4.0291,-1.81543 0.73868,-1.42845 0.19886,-3.52712 -1.08382,-4.21359 -0.35722,-0.19118 -0.64949,-0.51149 -0.64949,-0.71179 0,-0.6212 -1.25749,-1.66306 -2.00726,-1.66306 -0.38963,0 -1.09477,0.23879 -1.567,0.53065 l -0.8586,0.53064 -0.73143,-0.95896 c -2.17803,-2.85554 -6.9801,-2.39995 -8.19352,0.77734 -0.24798,0.64933 -0.72732,1.32248 -1.07373,1.50787 -0.34417,0.1842 -0.80975,0.72261 -1.03461,1.19648 -1.04508,2.20233 0.0734,4.25936 2.56767,4.72242 0.54567,0.10131 1.2844,0.47646 1.64162,0.83367 0.85335,0.85335 1.99011,0.84327 3.02415,-0.0268 z m -3.76482,-2.98256 c -0.62598,-0.69169 -0.59637,-2.99487 0.046,-3.57618 0.85584,-0.77453 2.42656,-0.42429 2.42656,0.54108 0,0.48917 -0.54332,0.42574 -0.93439,-0.10908 -0.5385,-0.73644 -1.18228,0.0145 -1.18228,1.37908 0,1.36459 0.64378,2.11552 1.18228,1.37907 0.39107,-0.53482 0.93439,-0.59824 0.93439,-0.10907 0,0.99042 -1.71373,1.33358 -2.47253,0.4951 z m 3.68205,0.0681 c -0.27449,-0.27449 -0.41577,-0.8974 -0.41577,-1.83318 0,-1.63261 0.43614,-2.24896 1.5914,-2.24896 0.48526,0 0.90868,0.21249 1.17172,0.58804 0.52975,0.75632 0.52975,2.56552 0,3.32184 -0.48912,0.69832 -1.73021,0.7894 -2.34735,0.17226 z m 1.69159,-0.62516 c 0.65179,-1.21789 0.061,-3.13411 -0.85757,-2.78161 -0.35243,0.13524 -0.45604,0.49416 -0.45604,1.57985 0,1.29254 0.16289,1.61669 0.85059,1.69264 0.10402,0.0115 0.31238,-0.20941 0.46302,-0.49088 z m 1.86875,0.71021 c 0.004,-0.1819 0.36124,-0.79843 0.79375,-1.37005 0.80419,-1.06284 0.99419,-1.84373 0.51994,-2.13684 -0.14655,-0.0906 -0.33788,0.0215 -0.42518,0.24897 -0.19155,0.49917 -0.89587,0.55395 -0.89587,0.0697 0,-0.8269 1.24731,-1.27014 2.08359,-0.74042 0.54022,0.34219 0.44076,1.55458 -0.19843,2.41915 -0.71323,0.96469 -0.70548,1.04648 0.0992,1.04648 0.41158,0 0.66146,0.14993 0.66146,0.39687 0,0.29986 -0.32338,0.39688 -1.32291,0.39688 -0.88587,0 -1.32049,-0.10927 -1.31556,-0.33073 z m -12.75231,-6.52041 c -0.77564,-0.71496 -1.32818,-1.38357 -1.22786,-1.48579 0.1886,-0.19218 3.12489,1.96765 3.12489,2.29856 0,0.61061 -0.65928,0.32814 -1.89703,-0.81277 z m 19.09495,0.41313 c 0,-0.42511 2.08295,-2.15058 2.31545,-1.91807 0.17836,0.17836 -1.76088,2.27066 -2.10456,2.27066 -0.11599,0 -0.21089,-0.15867 -0.21089,-0.35259 z m -2.83987,-1.98506 c -0.19707,-0.1218 0.20886,-0.59108 1.12337,-1.29867 1.57501,-1.21865 2.19746,-1.14329 0.84631,0.10247 -1.30299,1.20135 -1.63505,1.40301 -1.96968,1.1962 z m -14.09346,-1.23423 c -0.59904,-0.61804 -0.81036,-1.01526 -0.63397,-1.19165 0.17639,-0.17639 0.5641,0.0444 1.16313,0.66249 0.59904,0.61805 0.81036,1.01526 0.63397,1.19165 -0.17639,0.17639 -0.5641,-0.0444 -1.16313,-0.66249 z m 9.30164,-0.5804 c -0.19692,-0.0785 0.32151,-0.41698 1.16161,-0.75842 0.83448,-0.33916 1.96978,-0.98032 2.52287,-1.4248 0.62569,-0.50281 1.07129,-0.7019 1.17942,-0.52694 0.26288,0.42534 -0.53031,1.15706 -2.24495,2.07095 -1.52974,0.81534 -1.93122,0.91333 -2.61895,0.63921 z m -6.61611,-1.40563 c -0.60392,-0.43747 -1.09803,-0.89388 -1.09803,-1.01424 0,-0.58369 0.42803,-0.47293 1.40541,0.36367 0.5891,0.50425 1.17574,0.91681 1.30366,0.91681 0.12791,0 0.15899,0.11907 0.0691,0.26459 -0.25083,0.40586 -0.49239,0.32954 -1.68009,-0.53083 z m 3.26759,-1.20817 c -1.24551,-0.64778 -2.05359,-1.49429 -1.65915,-1.73806 0.20007,-0.12366 0.59343,0.0428 0.99502,0.421 0.36527,0.34403 1.11062,0.74606 1.65632,0.89341 1.24272,0.33556 2.72099,-0.0272 3.6407,-0.89341 0.40158,-0.37822 0.79494,-0.54466 0.99502,-0.421 0.24542,0.15168 0.1764,0.34922 -0.26726,0.76487 -0.98371,0.92158 -2.11504,1.38601 -3.37627,1.38601 -0.65485,0 -1.54782,-0.18577 -1.98438,-0.41282 z"
         id="path4577"
         inkscape:connector-curvature="0" />
      <path
         style="fill:#505050;stroke-width:0.26458332"
         d="m 171.99807,283.43975 c -0.29104,-0.12656 -0.75598,-0.4823 -1.03319,-0.79051 -0.27722,-0.30822 -0.78915,-0.5604 -1.13762,-0.5604 -1.55653,0 -3.32161,-1.69649 -3.65933,-3.51714 -0.23541,-1.26912 0.4289,-3.1112 1.42442,-3.94982 0.39359,-0.33156 0.87771,-0.99457 1.07582,-1.47335 0.8371,-2.02311 3.77629,-3.50174 6.19275,-3.11541 1.23295,0.19712 3.20537,1.25225 3.57474,1.91228 0.20298,0.36271 0.37557,0.38251 1.10809,0.12716 0.47721,-0.16636 1.09979,-0.30247 1.3835,-0.30247 0.88404,0 2.22242,0.78562 2.60804,1.53091 0.20297,0.39228 0.6879,0.98559 1.07763,1.31847 1.64195,1.40249 1.90679,4.06571 0.57836,5.816 -0.94301,1.24247 -1.92039,1.65337 -3.93279,1.65337 -1.08821,0 -2.0567,0.16063 -2.57053,0.42634 -0.56404,0.29168 -1.20756,0.38246 -2.03738,0.28742 -0.86262,-0.0988 -1.34072,-0.0244 -1.65541,0.25753 -0.53416,0.47861 -2.26527,0.69788 -2.9971,0.37962 z m 2.70709,-1.46403 c 0.53291,-0.44841 0.87845,-0.56943 1.14478,-0.40093 0.51449,0.32553 2.29426,0.31476 2.49813,-0.0151 0.0899,-0.14552 0.96017,-0.2713 1.93385,-0.27951 2.32435,-0.0196 3.46395,-0.43812 4.20855,-1.54555 1.07723,-1.60214 0.82637,-2.8309 -0.98766,-4.83781 -0.43636,-0.48276 -1.0263,-1.14564 -1.31097,-1.47306 -0.64116,-0.73747 -1.72462,-0.76788 -2.7715,-0.0778 l -0.77982,0.51404 -0.86509,-1.01066 c -1.07765,-1.25899 -2.34162,-1.87472 -3.83297,-1.86719 -2.17629,0.011 -4.13185,1.38099 -4.5928,3.21756 -0.0935,0.37265 -0.43848,0.82121 -0.76654,0.99678 -1.42479,0.76253 -1.8915,2.90668 -0.96384,4.42807 0.57818,0.94824 1.0547,1.25496 2.39442,1.54119 0.50932,0.10881 1.2626,0.48009 1.67394,0.82505 0.95781,0.80323 2.05151,0.79777 3.01752,-0.0151 z m -3.75042,-3.12075 c -0.22653,-0.32342 -0.41188,-1.07084 -0.41188,-1.66092 0,-0.59009 0.18535,-1.3375 0.41188,-1.66092 0.66905,-0.9552 2.49854,-0.66896 2.49854,0.39092 0,0.48917 -0.54332,0.42574 -0.93439,-0.10908 -0.5385,-0.73644 -1.18228,0.0145 -1.18228,1.37908 0,1.36459 0.64378,2.11552 1.18228,1.37907 0.39107,-0.53482 0.93439,-0.59824 0.93439,-0.10907 0,1.05987 -1.82949,1.34611 -2.49854,0.39092 z m 3.70806,0.17226 c -0.27449,-0.27449 -0.41577,-0.8974 -0.41577,-1.83318 0,-1.63261 0.43614,-2.24896 1.5914,-2.24896 0.48526,0 0.90868,0.21249 1.17172,0.58804 0.52975,0.75632 0.52975,2.56552 0,3.32184 -0.48912,0.69832 -1.73021,0.7894 -2.34735,0.17226 z m 1.64798,-0.43089 c 0.45402,-0.45402 0.40064,-2.45913 -0.076,-2.8547 -0.75788,-0.62899 -1.19399,-0.11764 -1.19399,1.40001 0,0.78068 0.0794,1.49879 0.17639,1.5958 0.271,0.271 0.74231,0.21018 1.09361,-0.14111 z m 1.91236,0.51594 c 0.004,-0.1819 0.36124,-0.79843 0.79375,-1.37005 0.80419,-1.06284 0.99419,-1.84373 0.51994,-2.13684 -0.14655,-0.0906 -0.33788,0.0215 -0.42518,0.24897 -0.21232,0.55329 -0.95852,0.53482 -0.84912,-0.021 0.12703,-0.64549 0.83748,-0.98932 1.63209,-0.78989 0.58068,0.14574 0.70139,0.32445 0.69653,1.03115 -0.003,0.47017 -0.23872,1.15251 -0.52329,1.51631 -0.70159,0.89693 -0.65899,1.32292 0.13229,1.32292 0.36381,0 0.66146,0.11906 0.66146,0.26458 0,0.14552 -0.59531,0.26459 -1.32291,0.26459 -0.88587,0 -1.32049,-0.10927 -1.31556,-0.33073 z m -12.72178,-6.51909 c -2.56308,-2.30543 -1.12425,-1.84333 1.72098,0.55273 0.15793,0.13299 0.15257,0.31046 -0.0144,0.47745 -0.17798,0.17798 -0.74172,-0.16233 -1.70656,-1.03018 z m 19.06442,0.41181 c 0,-0.42511 2.08295,-2.15058 2.31545,-1.91807 0.17836,0.17836 -1.76088,2.27066 -2.10456,2.27066 -0.11599,0 -0.21089,-0.15867 -0.21089,-0.35259 z m -2.8823,-2.01129 c -0.24238,-0.14979 -0.0818,-0.36915 0.56118,-0.76652 0.4954,-0.30618 1.11717,-0.79584 1.3817,-1.08815 0.26454,-0.29231 0.59308,-0.46219 0.7301,-0.37751 0.27366,0.16914 -0.59677,1.19715 -1.65737,1.95741 -0.39924,0.28619 -0.8151,0.3987 -1.01561,0.27477 z m -14.13382,-1.28862 c -0.78891,-0.82344 -0.88277,-1.11 -0.36359,-1.11 0.35427,0 1.76929,1.33411 1.76929,1.66812 0,0.42691 -0.74561,0.13087 -1.4057,-0.55812 z m 9.40698,-0.53582 c -0.216,-0.13712 0.16161,-0.36741 1.07409,-0.65504 0.77396,-0.24397 1.89778,-0.8635 2.49737,-1.37673 0.68149,-0.58333 1.15643,-0.82593 1.26693,-0.64715 0.27571,0.44612 -0.60348,1.23703 -2.33934,2.10445 -1.68888,0.84394 -1.97205,0.90904 -2.49905,0.57447 z m -6.62624,-1.39082 c -0.61075,-0.44915 -1.11045,-0.90556 -1.11045,-1.01424 0,-0.56191 0.44007,-0.44139 1.40541,0.3849 0.5891,0.50425 1.17574,0.91681 1.30366,0.91681 0.12791,0 0.15899,0.11907 0.0691,0.26459 -0.2495,0.4037 -0.46507,0.33234 -1.66767,-0.55206 z m 3.10402,-1.29378 c -1.1446,-0.60511 -1.67779,-1.20308 -1.4301,-1.60385 0.12308,-0.19915 0.41562,-0.082 0.88267,0.35337 1.05676,0.98514 2.46286,1.3556 3.67514,0.96825 0.54571,-0.17436 1.30655,-0.61007 1.69077,-0.96825 0.74649,-0.6959 1.35647,-0.40457 0.73096,0.34912 -1.11853,1.34775 -3.86214,1.79337 -5.54944,0.90136 z"
         id="path4575"
         inkscape:connector-curvature="0" />
      <path
         style="fill:#2d2d2d;stroke-width:0.26458332"
         d="m 172.1305,283.37909 c -0.36373,-0.14504 -0.89951,-0.47997 -1.19063,-0.74429 -0.29111,-0.26432 -0.99708,-0.56421 -1.56881,-0.66643 -1.31748,-0.23554 -2.63256,-1.51843 -3.07693,-3.00159 -0.45568,-1.52094 0.009,-3.0009 1.36225,-4.34095 0.56892,-0.56326 1.0344,-1.18896 1.0344,-1.39046 0,-0.58426 1.30389,-1.97429 2.34839,-2.50351 2.34878,-1.19008 5.23189,-0.82753 6.87147,0.8641 0.85412,0.88123 0.89921,0.89494 1.67284,0.509 1.18429,-0.59079 2.57281,-0.27839 3.46868,0.78042 0.40443,0.478 1.14642,1.32432 1.64885,1.88073 1.21295,1.34323 1.63568,2.7568 1.22968,4.11191 -0.67452,2.25135 -2.1116,3.21082 -4.80913,3.21082 -0.96289,0 -1.94055,0.17138 -2.43434,0.42673 -0.56342,0.29135 -1.17725,0.37847 -1.93497,0.27461 -0.81156,-0.11124 -1.38339,-0.0126 -2.12802,0.36703 -1.12798,0.57507 -1.52043,0.60999 -2.49373,0.22188 z m 2.56891,-1.39853 c 0.58546,-0.49263 0.86563,-0.57696 1.23328,-0.37121 0.26164,0.14642 0.97167,0.19143 1.57784,0.10002 0.60617,-0.0914 2.05462,-0.25884 3.21879,-0.37207 2.44595,-0.23788 3.13812,-0.54584 3.84963,-1.71274 0.93775,-1.53795 0.64031,-3.03403 -0.90883,-4.5712 -0.45327,-0.44978 -1.03805,-1.13439 -1.2995,-1.52136 -0.58603,-0.86735 -2.08688,-0.95935 -3.08895,-0.18934 l -0.65389,0.50246 -0.91755,-1.07194 c -0.50464,-0.58957 -1.3079,-1.23505 -1.785,-1.43439 -1.8135,-0.75773 -4.47902,-0.22772 -5.68675,1.13075 -0.24017,0.27015 -0.61704,0.92808 -0.83749,1.46207 -0.22046,0.53399 -0.6478,1.10306 -0.94966,1.26461 -1.3182,0.70548 -1.72831,2.95838 -0.8121,4.46115 0.51116,0.8384 1.87325,1.63772 2.7908,1.63772 0.23832,0 0.78706,0.29766 1.21942,0.66146 0.99215,0.83484 2.0762,0.84337 3.04996,0.024 z m -3.74467,-3.12559 c -0.22653,-0.32342 -0.41188,-1.07084 -0.41188,-1.66092 0,-0.59009 0.18535,-1.3375 0.41188,-1.66092 0.66905,-0.9552 2.49854,-0.66896 2.49854,0.39092 0,0.47549 -0.7027,0.43368 -0.88943,-0.0529 -0.20034,-0.52207 -0.86315,-0.50863 -1.06664,0.0216 -0.57988,1.51115 0.26187,3.71946 1.02168,2.68035 0.39107,-0.53482 0.93439,-0.59824 0.93439,-0.10907 0,1.05987 -1.82949,1.34611 -2.49854,0.39092 z m 3.73017,0.10418 c -0.58318,-0.6444 -0.59779,-3.0226 -0.0221,-3.59829 0.51709,-0.51708 1.43725,-0.5346 2.11335,-0.0402 0.7409,0.54175 0.7409,3.20506 0,3.74682 -0.70483,0.51538 -1.56723,0.47072 -2.09124,-0.10831 z m 1.62587,-0.36281 c 0.45402,-0.45402 0.40064,-2.45913 -0.076,-2.8547 -0.75788,-0.62899 -1.19399,-0.11764 -1.19399,1.40001 0,0.78068 0.0794,1.49879 0.17639,1.5958 0.271,0.271 0.74231,0.21018 1.09361,-0.14111 z m 1.905,0.55401 c 0,-0.16096 0.33741,-0.7265 0.74979,-1.25677 0.93478,-1.20198 1.12075,-1.70331 0.8082,-2.17873 -0.20545,-0.31253 -0.30257,-0.29794 -0.6,0.0901 -0.41665,0.54362 -0.95799,0.6109 -0.95799,0.11906 0,-0.51527 0.56395,-0.97896 1.19062,-0.97896 1.30956,0 1.57881,1.4255 0.52917,2.80164 -0.83795,1.09862 -0.83019,1.16711 0.13229,1.16711 0.43657,0 0.79375,0.11906 0.79375,0.26458 0,0.14552 -0.59531,0.26459 -1.32291,0.26459 -0.79015,0 -1.32292,-0.11786 -1.32292,-0.29266 z m -12.87284,-6.69279 c -0.7053,-0.64053 -1.20347,-1.24529 -1.10705,-1.34389 0.18264,-0.18678 3.07805,1.96225 3.11238,2.31007 0.0513,0.51937 -0.84515,0.0875 -2.00533,-0.96618 z m 19.22761,0.57861 c 0.006,-0.42069 2.08178,-2.17814 2.3069,-1.95303 0.1863,0.18631 -1.15123,1.66369 -1.84865,2.04194 -0.33135,0.17972 -0.46166,0.15443 -0.45825,-0.0889 z m -1.80062,-3.21387 c 0.76944,-0.63473 1.50715,-1.09228 1.63937,-1.01679 0.37347,0.21324 -1.87106,2.17083 -2.48902,2.17083 -0.42618,0 -0.23571,-0.25871 0.84965,-1.15404 z m -15.22027,-0.11721 c -0.73647,-0.76871 -0.88209,-1.11 -0.47359,-1.11 0.3072,0 1.87929,1.37729 1.87929,1.64642 0,0.44649 -0.73142,0.16738 -1.4057,-0.53642 z m 9.49977,-0.54155 c -0.0766,-0.12391 0.32841,-0.36541 0.89997,-0.53665 0.57157,-0.17125 1.58073,-0.72471 2.24259,-1.22991 0.66185,-0.50521 1.34368,-0.91856 1.51516,-0.91856 0.60927,0 -1.26361,1.66445 -2.56533,2.27984 -1.422,0.67225 -1.87336,0.75968 -2.09239,0.40528 z m -6.80566,-1.55714 c -1.39361,-1.25905 -0.9039,-1.43687 0.66308,-0.24076 0.86457,0.65994 1.0914,0.95895 0.80953,1.06711 -0.2307,0.0885 -0.83576,-0.251 -1.47261,-0.82635 z m 3.3418,-1.09186 c -1.20882,-0.54988 -1.84718,-1.20345 -1.58684,-1.62467 0.11427,-0.1849 0.42115,-0.0462 0.85287,0.38555 0.37091,0.37091 1.13427,0.81216 1.69636,0.98057 1.27943,0.38333 2.76621,-0.006 3.74033,-0.98057 0.43173,-0.43173 0.7386,-0.57045 0.85288,-0.38555 0.44211,0.71534 -1.91614,2.1061 -3.57122,2.1061 -0.50933,0 -1.4023,-0.21664 -1.98438,-0.48143 z"
         id="path4573"
         inkscape:connector-curvature="0" />
      <path
         style="fill:#161616;stroke-width:0.26458332"
         d="m 172.29422,283.39613 c -0.4192,-0.12193 -1.01451,-0.44996 -1.32292,-0.72896 -0.3084,-0.279 -0.9577,-0.58182 -1.44289,-0.67293 -3.29322,-0.61842 -4.46379,-4.72827 -2.03771,-7.15435 0.49234,-0.49234 1.14472,-1.38433 1.44973,-1.98219 0.65883,-1.29142 2.06091,-2.28121 3.76701,-2.65929 1.96927,-0.43641 4.12764,0.22036 5.47753,1.66674 0.59262,0.63498 0.67559,0.65249 1.37592,0.29034 0.4099,-0.21197 1.01908,-0.38496 1.35373,-0.38441 0.7976,0.001 2.21271,0.87625 2.60612,1.61135 0.17141,0.32028 0.70997,0.98065 1.19681,1.46748 1.07916,1.07917 1.50327,2.48679 1.1784,3.91116 -0.51313,2.2498 -2.06512,3.32777 -4.79112,3.32777 -1.08024,0 -2.07697,0.16341 -2.60573,0.42719 -0.58639,0.29253 -1.18416,0.37476 -1.89638,0.26087 -0.68894,-0.11017 -1.23981,-0.0417 -1.63173,0.20279 -0.84131,0.52485 -1.79429,0.67311 -2.67677,0.41644 z m 2.45987,-1.41605 c 0.57527,-0.61235 0.6375,-0.62196 1.55213,-0.2398 0.8556,0.35749 1.04307,0.35509 1.83705,-0.0235 0.52887,-0.2522 1.57702,-0.42165 2.60817,-0.42165 1.90955,0 2.94006,-0.40384 3.79098,-1.4856 1.04227,-1.32504 0.46735,-4.06038 -1.02082,-4.85682 -0.29882,-0.15993 -0.54332,-0.42775 -0.54332,-0.59515 0,-0.1674 -0.25888,-0.57993 -0.57529,-0.91673 -0.73788,-0.78544 -2.259,-0.82424 -3.20298,-0.0817 l -0.67463,0.53067 -0.56165,-0.90877 c -1.29738,-2.09919 -4.96274,-2.66874 -7.02957,-1.0923 -0.54084,0.41253 -1.20725,1.25621 -1.4809,1.87485 -0.27366,0.61864 -0.67555,1.19311 -0.89309,1.27658 -0.68648,0.26343 -1.45486,1.83521 -1.4559,2.97814 -0.002,1.68399 1.57683,3.27683 3.24704,3.27683 0.34566,0 0.90811,0.29766 1.24989,0.66146 0.84366,0.89804 2.32097,0.90906 3.15289,0.0235 z m -3.51675,-2.87709 c -0.94453,-0.69065 -0.77682,-3.67527 0.22819,-4.06092 0.58948,-0.22621 1.72225,0.12193 1.89947,0.58377 0.23862,0.62182 -0.17805,0.83041 -0.57483,0.28777 -0.1954,-0.26722 -0.57262,-0.44447 -0.83827,-0.39388 -0.38923,0.0741 -0.49842,0.38742 -0.56244,1.61394 -0.0884,1.69406 0.35939,2.20745 1.23461,1.41538 0.58742,-0.5316 0.82921,-0.54367 0.82921,-0.0414 0,0.41061 -0.77825,0.93535 -1.38724,0.93535 -0.20004,0 -0.57295,-0.15301 -0.8287,-0.34002 z m 3.44757,-0.14384 c -0.62597,-0.69169 -0.59636,-2.99487 0.046,-3.57618 1.01349,-0.91719 2.30299,-0.36483 2.54911,1.0919 0.17642,1.04426 -0.18764,2.4126 -0.73441,2.76026 -0.55111,0.35043 -1.40892,0.22319 -1.86067,-0.27598 z m 1.66256,-0.42263 c 0.47003,-0.56635 0.24417,-2.55322 -0.33,-2.90303 -0.94422,-0.57525 -1.66024,1.47396 -0.96738,2.76858 0.32371,0.60486 0.86078,0.66052 1.29738,0.13445 z m 1.86831,0.54201 c 0,-0.20046 0.17716,-0.51151 0.39368,-0.6912 0.21652,-0.1797 0.63465,-0.71664 0.92918,-1.1932 0.78088,-1.26348 0.16476,-2.4081 -0.67675,-1.25727 -0.38365,0.52468 -0.79131,0.2974 -0.55783,-0.31102 0.21247,-0.5537 1.41508,-0.81537 1.89953,-0.41332 0.58695,0.48713 0.47663,1.5109 -0.26802,2.48718 -0.84325,1.10556 -0.83142,1.21414 0.13229,1.21414 0.43657,0 0.79375,0.11906 0.79375,0.26458 0,0.14552 -0.59531,0.26459 -1.32291,0.26459 -0.94728,0 -1.32292,-0.1035 -1.32292,-0.36448 z m -12.83954,-6.61919 c -0.72362,-0.63955 -1.23154,-1.24954 -1.12872,-1.35552 0.10281,-0.10598 0.74466,0.29823 1.42631,0.89825 0.68165,0.60002 1.34167,1.09094 1.4667,1.09094 0.12503,0 0.22733,0.11906 0.22733,0.26458 0,0.55022 -0.72036,0.22533 -1.99162,-0.89825 z m 19.21194,0.58554 c 0.0285,-0.44351 2.05185,-2.19915 2.27608,-1.97492 0.20249,0.20249 -0.57341,1.09405 -1.57088,1.80504 -0.5063,0.36088 -0.72079,0.41255 -0.7052,0.16988 z m -2.20518,-2.84481 c 0.58939,-0.42696 1.15006,-0.90321 1.24594,-1.05834 0.0959,-0.15513 0.37565,-0.27717 0.62173,-0.27121 0.65349,0.0159 -1.73286,2.10582 -2.40445,2.10582 -0.41476,0 -0.29424,-0.17429 0.53678,-0.77627 z m -14.78088,-0.49667 c -1.10771,-0.98973 -0.63581,-1.27984 0.51487,-0.31653 0.50333,0.42138 0.76418,0.81035 0.60811,0.9068 -0.15032,0.0929 -0.65566,-0.17272 -1.12298,-0.59027 z m 9.46056,-0.51842 c -0.0839,-0.13571 0.31516,-0.38685 0.88672,-0.55809 0.57157,-0.17125 1.5914,-0.73285 2.2663,-1.24801 1.28937,-0.9842 1.87928,-1.03101 1.01944,-0.0809 -1.05604,1.16691 -3.8395,2.42574 -4.17246,1.88701 z m -6.69438,-1.50697 c -0.55883,-0.48518 -0.92552,-0.97465 -0.81486,-1.08772 0.11065,-0.11307 0.52737,0.0972 0.92604,0.46732 0.39866,0.3701 0.94623,0.79016 1.21682,0.93348 0.41343,0.21897 0.42781,0.2852 0.09,0.41482 -0.23838,0.0915 -0.81546,-0.20475 -1.41803,-0.7279 z m 3.16716,-1.21951 c -0.60965,-0.30177 -1.25169,-0.72128 -1.42677,-0.93223 -0.59357,-0.71521 -0.0319,-0.67831 1.10255,0.0724 1.5496,1.02547 3.16782,1.02547 4.71741,0 1.13868,-0.75355 1.6956,-0.78703 1.09717,-0.066 -0.53049,0.63921 -2.49873,1.47485 -3.47326,1.47463 -0.49976,-1.1e-4 -1.40746,-0.24711 -2.0171,-0.54888 z"
         id="path4571"
         inkscape:connector-curvature="0" />
      <path
         style="fill:#000000;stroke-width:0.26458332"
         d="m 171.12028,282.7503 c -0.43235,-0.3638 -0.99082,-0.66146 -1.24104,-0.66146 -0.70815,0 -2.46916,-1.08679 -2.9499,-1.82049 -1.11077,-1.69524 -0.88929,-3.78066 0.56533,-5.32326 0.48027,-0.50932 1.07645,-1.32935 1.32484,-1.82229 0.97223,-1.9294 2.75136,-2.97801 5.05264,-2.97801 1.61201,0 3.38359,0.69937 4.3015,1.69812 0.59903,0.65179 0.65062,0.66079 1.57478,0.27465 1.21435,-0.50739 2.73802,-0.11488 3.42268,0.88172 0.25775,0.37517 0.90186,1.17482 1.43138,1.77699 2.93528,3.33807 0.99521,7.31257 -3.56949,7.31257 -1.08189,0 -2.09266,0.16773 -2.67007,0.44307 -0.73743,0.35166 -1.11358,0.38647 -1.82314,0.1687 -0.74153,-0.22759 -1.002,-0.19134 -1.52723,0.2125 -0.97058,0.74625 -2.90824,0.6652 -3.89228,-0.16281 z m 3.67995,-0.76477 c 0.58423,-0.60702 0.64364,-0.61583 1.47597,-0.21892 0.7454,0.35546 0.97043,0.36295 1.60184,0.0533 0.40404,-0.19811 1.79149,-0.43348 3.08322,-0.52306 2.28479,-0.15843 2.37287,-0.18932 3.24115,-1.13678 0.77296,-0.84344 0.89254,-1.15717 0.89254,-2.3417 0,-1.24481 -0.0924,-1.45567 -1.02798,-2.34565 -0.56538,-0.53784 -1.11264,-1.24465 -1.21612,-1.57069 -0.26649,-0.83965 -1.74792,-1.41689 -2.7037,-1.0535 -0.40688,0.15469 -0.92815,0.45173 -1.15838,0.66009 -0.36903,0.33397 -0.46307,0.29503 -0.79423,-0.32894 -0.2066,-0.38927 -0.90496,-1.04428 -1.55191,-1.45558 -2.55341,-1.62331 -6.10858,-0.63783 -7.19798,1.99525 -0.1886,0.45585 -0.79256,1.25686 -1.34214,1.78004 -0.90439,0.86093 -0.99923,1.08104 -0.99923,2.31898 0,1.1757 0.12075,1.49856 0.8599,2.2991 0.60506,0.65532 1.17354,0.98005 1.91822,1.09574 0.60331,0.0937 1.30886,0.43106 1.64102,0.78458 0.81145,0.86366 2.4406,0.85754 3.27781,-0.0123 z m -3.5136,-2.87325 c -0.93389,-0.74298 -0.86227,-3.41438 0.10542,-3.93227 0.6639,-0.35532 1.68754,-0.10712 1.90598,0.46212 0.24404,0.63597 -0.0575,0.79784 -0.46028,0.24706 -0.19002,-0.25986 -0.57574,-0.42813 -0.85717,-0.37394 -0.43773,0.0843 -0.51168,0.32691 -0.51168,1.6788 0,1.34297 0.0756,1.59481 0.50344,1.6772 0.27689,0.0533 0.61023,-0.0939 0.74075,-0.3271 0.25727,-0.45971 0.74019,-0.57609 0.74019,-0.17838 0,0.40867 -0.80139,1.07724 -1.29125,1.07724 -0.25283,0 -0.64676,-0.14883 -0.8754,-0.33073 z m 3.54844,-0.0811 c -0.48391,-0.33894 -0.58804,-0.66425 -0.58804,-1.83708 0,-1.17283 0.10413,-1.49814 0.58804,-1.83708 1.34778,-0.94402 2.32238,-0.14288 2.32238,1.90905 0,1.09845 -0.11072,1.43078 -0.58804,1.76511 -0.32342,0.22653 -0.71365,0.41188 -0.86717,0.41188 -0.15352,0 -0.54375,-0.18535 -0.86717,-0.41188 z m 1.66092,-1.83346 c 0,-1.35547 -0.0738,-1.59808 -0.51168,-1.68242 -0.64632,-0.12447 -1.20811,0.62628 -1.20811,1.61447 0,1.12504 0.46476,1.8305 1.14238,1.73403 0.52003,-0.074 0.57741,-0.23959 0.57741,-1.66608 z m 1.71979,2.00105 c 0,-0.13435 0.27997,-0.58084 0.62215,-0.99218 0.71816,-0.86333 1.22993,-1.77625 1.22993,-2.19403 0,-0.54065 -0.81131,-0.61538 -1.1817,-0.10883 -0.41545,0.56816 -0.76535,0.39051 -0.51513,-0.26155 0.22225,-0.57917 1.33736,-0.84059 1.83256,-0.42961 0.57974,0.48115 0.48023,1.36421 -0.26802,2.3784 -0.8498,1.15184 -0.83269,1.32292 0.13229,1.32292 0.43657,0 0.79375,0.11906 0.79375,0.26458 0,0.14552 -0.59531,0.26459 -1.32291,0.26459 -0.72761,0 -1.32292,-0.10993 -1.32292,-0.24429 z m -12.67624,-6.64103 c -1.21458,-0.96007 -1.6832,-1.60078 -1.14824,-1.5699 0.34574,0.02 3.12312,2.62841 2.80188,2.63146 -0.16883,0.002 -0.91297,-0.4761 -1.65364,-1.06156 z m 19.94158,-0.51206 c 0.56251,-0.57605 1.14425,-0.97227 1.29277,-0.88048 0.28524,0.17629 -1.5694,1.92786 -2.04131,1.92786 -0.1508,0 0.18604,-0.47132 0.74854,-1.04738 z m -3.5539,-1.50674 c 0.3598,-0.2406 0.98036,-0.73794 1.37903,-1.10519 0.39866,-0.36726 0.81538,-0.57603 0.92604,-0.46394 0.28183,0.28547 -1.80227,1.99785 -2.43736,2.00264 -0.46511,0.004 -0.45072,-0.0437 0.13229,-0.43351 z m -14.1292,-0.7455 c -0.3821,-0.35413 -0.69474,-0.79089 -0.69474,-0.97058 0,-0.1797 0.38636,0.023 0.85857,0.45038 0.47222,0.42741 0.89686,0.79495 0.94365,0.81676 0.0468,0.0218 -0.0269,0.10887 -0.16383,0.19348 -0.1369,0.0846 -0.56154,-0.13591 -0.94365,-0.49004 z m 9.33132,-0.69211 c -0.29299,-0.18552 -0.27146,-0.23434 0.10479,-0.23756 0.67739,-0.006 2.57616,-1.00321 3.42629,-1.7998 0.76867,-0.72028 1.32245,-0.63746 0.7058,0.10555 -0.91928,1.10767 -3.60473,2.3321 -4.23688,1.93181 z m -6.86105,-1.53871 c -1.3102,-1.09836 -0.8861,-1.18242 0.63419,-0.1257 0.86611,0.60202 1.12188,0.89364 0.78376,0.89364 -0.27605,0 -0.91413,-0.34558 -1.41795,-0.76794 z m 3.83651,-0.83643 c -0.81341,-0.23654 -2.59008,-1.83522 -2.03955,-1.83522 0.16416,0 0.3731,0.12077 0.46433,0.26837 0.30299,0.49026 2.2134,1.31913 3.04037,1.31913 0.82696,0 2.73737,-0.82887 3.04037,-1.31913 0.0912,-0.1476 0.30017,-0.26837 0.46433,-0.26837 0.6113,0 -1.26117,1.60072 -2.16675,1.85229 -1.1025,0.30627 -1.70384,0.30261 -2.8031,-0.0171 z"
         id="path4569"
         inkscape:connector-curvature="0" />
    </g>
  </g>
</svg>
