<?xml version="1.0" encoding="UTF-8" standalone="no"?>
<!-- Created with Inkscape (http://www.inkscape.org/) -->

<svg
   xmlns:dc="http://purl.org/dc/elements/1.1/"
   xmlns:cc="http://creativecommons.org/ns#"
   xmlns:rdf="http://www.w3.org/1999/02/22-rdf-syntax-ns#"
   xmlns:svg="http://www.w3.org/2000/svg"
   xmlns="http://www.w3.org/2000/svg"
   xmlns:sodipodi="http://sodipodi.sourceforge.net/DTD/sodipodi-0.dtd"
   xmlns:inkscape="http://www.inkscape.org/namespaces/inkscape"
   width="23.944792mm"
   height="22.886456mm"
   viewBox="0 0 23.944792 22.886456"
   version="1.1"
   id="svg4058"
   inkscape:version="0.92.4 (5da689c313, 2019-01-14)"
   sodipodi:docname="occupancy.svg">
  <defs
     id="defs4052" />
  <sodipodi:namedview
     id="base"
     pagecolor="#ffffff"
     bordercolor="#666666"
     borderopacity="1.0"
     inkscape:pageopacity="0.0"
     inkscape:pageshadow="2"
     inkscape:zoom="8"
     inkscape:cx="107.09477"
     inkscape:cy="14.616175"
     inkscape:document-units="mm"
     inkscape:current-layer="layer1"
     showgrid="false"
     fit-margin-top="0"
     fit-margin-left="0"
     fit-margin-right="0"
     fit-margin-bottom="0"
     inkscape:window-width="3240"
     inkscape:window-height="2055"
     inkscape:window-x="-13"
     inkscape:window-y="-13"
     inkscape:window-maximized="1" />
  <metadata
     id="metadata4055">
    <rdf:RDF>
      <cc:Work
         rdf:about="">
        <dc:format>image/svg+xml</dc:format>
        <dc:type
           rdf:resource="http://purl.org/dc/dcmitype/StillImage" />
        <dc:title></dc:title>
      </cc:Work>
    </rdf:RDF>
  </metadata>
  <g
     inkscape:label="Layer 1"
     inkscape:groupmode="layer"
     id="layer1"
     transform="translate(8.9485865,82.592038)">
    <path
       id="path3958"
       style="fill:#000000;stroke-width:0.13229166"
       d="m -0.05828938,-67.831251 c -0.90043,-1.02553 -1.04052002,-2.634422 -0.34125,-3.919212 0.5005599,-0.919688 0.7410799,-1.028768 1.2787799,-0.579937 0.63710998,0.531788 0.65944998,0.636928 0.28416998,1.337537 -0.39435998,0.736272 -0.36506978,1.381842 0.0966,2.128851 l 0.27497,0.444921 -0.38006,0.399399 c -0.63940988,0.67193 -0.77078998,0.69234 -1.21321988,0.188441 z m -1.43857002,1.411888 c -1.5189901,-1.621258 -1.85117,-3.993089 -0.8371001,-5.977009 0.36962,-0.723118 1.07198,-1.597299 1.2823502,-1.596058 0.15870982,0.0011 1.09886992,0.891429 1.09886992,1.04081 0,0.0709 -0.14903,0.305999 -0.33118,0.522469 -1.15135002,1.36829 -1.15135002,3.441391 0,4.809681 0.18215,0.216469 0.33118,0.451588 0.33118,0.52247 0,0.148759 -0.93984,1.039857 -1.09773012,1.04081 -0.058,5.29e-4 -0.2589199,-0.163081 -0.4463899,-0.363173 z m -1.5841101,1.255551 c -2.0359601,-2.325348 -2.4477398,-5.355259 -1.0997499,-8.092089 0.4346599,-0.8825 1.37254,-2.060071 1.64074,-2.060071 0.22358,0 0.83421,0.48446 0.9991899,0.792732 0.1040702,0.194451 0.008,0.404839 -0.4780899,1.0521 -1.70352,2.266179 -1.63845,4.923419 0.1732701,7.075587 0.24071,0.285951 0.43766,0.59232 0.43766,0.680831 0,0.207561 -0.8796502,0.982081 -1.1153802,0.982081 -0.0991,0 -0.3500099,-0.19403 -0.55764,-0.431171 z m 6.99776,1.137304 c -0.12632,-0.051 -0.16537,-0.876223 -0.16537,-3.495283 0,-1.88571 -0.0501,-3.428561 -0.11135,-3.428561 -0.0612,0 -0.18047,0.23069 -0.26494,0.512651 -0.15915,0.53117 -1.17765,1.604021 -1.52278,1.604021 -0.71778,0 -0.87873998,-1.608593 -0.23047,-2.303222 0.14777,-0.15834 0.40539,-0.869961 0.60295,-1.665527 0.18971,-0.763993 0.40406,-1.537892 0.47633,-1.719793 0.16123,-0.405838 0.8205,-0.848909 1.59416,-1.07139 0.31932,-0.0918 0.60628,-0.186877 0.63769,-0.21122 0.0314,-0.02429 -0.13115,-0.238501 -0.36123,-0.475879 -0.23008,-0.237379 -0.45356,-0.608561 -0.49663,-0.824842 -0.11234,-0.564138 0.3911,-1.265708 1.08071,-1.506047 0.48673,-0.169641 0.58313,-0.163571 1.05034,0.0661 1.04318,0.512893 1.22792,1.508141 0.42556,2.292602 -0.29388,0.287319 -0.3565,0.415459 -0.22251,0.45534 1.90707,0.567729 1.99459,0.673978 2.61866,3.17899 0.53854,2.161697 0.55111,2.59408 0.0806,2.774618 -0.64154,0.246182 -1.15063,-0.0389 -1.32627,-0.74264 -0.23647,-0.947529 -0.32669,-0.10204 -0.32669,3.061631 0,3.801271 0.0546,3.586031 -0.9104,3.586031 -0.27054,0 -0.56333,-0.0714 -0.65064,-0.15875 -0.11305,-0.11305 -0.15875,-0.931922 -0.15875,-2.844272 0,-1.70216 -0.0484,-2.685521 -0.13229,-2.685521 -0.0838,0 -0.13229,0.983361 -0.13229,2.685521 0,1.91235 -0.0457,2.731222 -0.15875,2.844272 -0.15582,0.15581 -1.07032,0.20242 -1.39568,0.0711 z m -0.89298,-18.56553 c -11.266842,0 -11.447304,0.0041 -11.707814,0.264583 -0.26058,0.2603 -0.264583,0.440976 -0.264583,11.178646 0,10.737681 0.0043,10.918331 0.264583,11.178637 0.26051,0.26058 0.440972,0.26459 11.707814,0.26459 11.2668395,0 11.4473115,-0.004 11.7078125,-0.26459 0.260591,-0.260306 0.264583,-0.440956 0.264583,-11.178637 0,-10.73767 -0.0043,-10.918346 -0.264583,-11.178646 -0.260501,-0.260591 -0.440973,-0.264583 -11.7078125,-0.264583 z m -10.781771,1.190625 H 3.0238105 13.805581 v 10.252604 10.252601 H 3.0238105 -7.7579605 v -10.252601 z"
       inkscape:connector-curvature="0" />
  </g>
</svg>
