<?xml version="1.0" encoding="UTF-8" standalone="no"?>
<!-- Created with Inkscape (http://www.inkscape.org/) -->

<svg
   xmlns:dc="http://purl.org/dc/elements/1.1/"
   xmlns:cc="http://creativecommons.org/ns#"
   xmlns:rdf="http://www.w3.org/1999/02/22-rdf-syntax-ns#"
   xmlns:svg="http://www.w3.org/2000/svg"
   xmlns="http://www.w3.org/2000/svg"
   xmlns:sodipodi="http://sodipodi.sourceforge.net/DTD/sodipodi-0.dtd"
   xmlns:inkscape="http://www.inkscape.org/namespaces/inkscape"
   width="411.26831"
   height="209.68234"
   viewBox="0 0 411.26832 209.68234"
   version="1.1"
   id="svg8"
   sodipodi:docname="room.svg"
   inkscape:version="0.92.4 (5da689c313, 2019-01-14)">
  <defs
     id="defs2" />
  <sodipodi:namedview
     id="base"
     pagecolor="#ffffff"
     bordercolor="#666666"
     borderopacity="1.0"
     inkscape:pageopacity="0.0"
     inkscape:pageshadow="2"
     inkscape:zoom="3.959798"
     inkscape:cx="167.00412"
     inkscape:cy="101.91822"
     inkscape:document-units="px"
     inkscape:current-layer="layer2"
     showgrid="false"
     units="px"
     width="1122.5196px"
     inkscape:window-width="3240"
     inkscape:window-height="2055"
     inkscape:window-x="-13"
     inkscape:window-y="-13"
     inkscape:window-maximized="1"
     fit-margin-top="0"
     fit-margin-left="0"
     fit-margin-right="0"
     fit-margin-bottom="0" />
  <metadata
     id="metadata5">
    <rdf:RDF>
      <cc:Work
         rdf:about="">
        <dc:format>image/svg+xml</dc:format>
        <dc:type
           rdf:resource="http://purl.org/dc/dcmitype/StillImage" />
        <dc:title></dc:title>
      </cc:Work>
    </rdf:RDF>
  </metadata>
  <g
     inkscape:groupmode="layer"
     id="layer2"
     inkscape:label="Background"
     style="display:inline;opacity:1"
     transform="translate(0,0)">
    <path
       style="fill:#000000;stroke-width:0.1322874"
       d="m 1e-5,162.91751 v -46.76478 l 26.754268,-0.0337 26.754268,-0.0337 -26.754268,-0.0327 L 10e-6,116.01983 V 58.009913 6.5292969e-6 L 86.744691,0.00500653 c 47.709569,0.003 101.983699,0.0602 120.609159,0.12767 18.62547,0.0674 72.08958,0.12459 118.80915,0.12706 77.35494,0.004 84.95183,0.0232 85.025,0.21389 0.0442,0.11516 0.0803,11.78219947 0.0803,25.92677647 v 25.71739 l -0.34697,0.0871 c -0.19082,0.0479 -51.30061,0.0585 -113.57728,0.0237 -97.23843,-0.0545 -113.24698,-0.0898 -113.34838,-0.24993 -0.0649,-0.10258 -0.11897,-2.8803 -0.12008,-6.17271 l -0.002,-5.9862 H 118.92256 53.971527 l -5.29e-4,38.13307 c -2.65e-4,20.97319 -5.7e-5,59.132717 5.29e-4,84.798957 9.26e-4,37.31031 -0.03216,46.67247 -0.164803,46.69876 -0.09124,0.0181 28.556069,0.0628 63.660716,0.0994 l 63.82663,0.0666 -90.64704,0.0329 L 0,209.68234 Z M 52.780988,162.7849 V 117.21042 H 26.588924 0.3968595 v 45.57448 45.57448 H 26.588924 52.780988 Z m 0,-71.172907 V 68.262513 H 26.588924 0.3968595 v 23.34948 23.349477 H 26.588924 52.780988 Z m 0,-57.48073 V 1.1906365 H 26.588924 0.3968595 V 34.131263 67.071893 H 26.588924 52.780988 Z M 273.69385,26.326053 V 1.4552165 h -21.69443 -21.69444 v 24.8708365 24.87084 h 21.69444 21.69443 z m 136.38394,-0.0661 V 1.4552165 h -67.06757 -67.06755 v 24.8046965 24.80468 h 67.06755 67.06757 z M 228.45301,26.127623 V 1.3229265 h -21.69443 -21.69444 v 24.8046965 24.80468 h 21.69444 21.69443 z M 118.658,19.909913 V 1.1906365 H 86.645478 54.632952 V 19.909913 38.629183 H 86.645478 118.658 Z m 65.21559,0 V 1.1906365 h -32.01252 -32.01252 v 18.7192765 18.71927 h 32.01252 32.01252 z M 285.62153,209.58308 c 23.40318,-0.0184 61.73884,-0.0184 85.19035,0 23.45152,0.0184 4.30347,0.0335 -42.55123,0.0335 -46.85468,0 -66.04229,-0.0151 -42.63912,-0.0335 z M 61.379393,175.08803 v -19.9099 h 18.902334 c 17.114433,0 18.909933,0.0198 18.982643,0.20926 0.0442,0.11509 0.0803,9.03841 0.0803,19.82959 0,17.76914 -0.0197,19.62792 -0.20925,19.70064 -0.11508,0.0442 -8.657274,0.0803 -18.98263,0.0803 H 61.379393 Z m 36.774717,0 V 156.36876 H 80.362022 62.569942 v 18.71927 18.71927 H 80.362022 98.15411 Z M 93.62715,79.545883 c 0.0287,-15.42229 0.0726,-19.82792 0.19843,-19.90788 0.0889,-0.0565 16.95685,-0.1036 37.48438,-0.10471 33.91263,-0.002 37.3301,0.0171 37.40306,0.20723 0.0442,0.11509 0.0803,9.03841 0.0803,19.82959 0,17.76915 -0.0197,19.62792 -0.20925,19.70064 -0.11508,0.0442 -17.03575,0.0803 -37.60148,0.0803 l -37.39224,1e-5 z m 36.67177,-0.10472 V 60.721893 H 112.57298 94.84703 v 18.71927 18.71927 h 17.72595 17.72594 z m 37.30385,0 V 60.721893 H 149.81068 132.0186 v 18.71927 18.71927 h 17.79208 17.79209 z"
       id="path3740"
       inkscape:connector-curvature="0" />
  </g>
</svg>
